<svg xmlns="http://www.w3.org/2000/svg" xmlns:xlink="http://www.w3.org/1999/xlink" width="1640" zoomAndPan="magnify" viewBox="0 0 1230 693.000001" height="924" preserveAspectRatio="xMidYMid meet" version="1.0"><defs><clipPath id="6e710792b9"><path d="M 500 0 L 1229.113281 0 L 1229.113281 692 L 500 692 Z M 500 0 " clip-rule="nonzero"/></clipPath></defs><g clip-path="url(#6e710792b9)"><path fill="#0063e2" d="M 1688.566406 452.683594 C 1705.976562 395.207031 1704.144531 328.4375 1673.949219 277.113281 C 1686.890625 274.234375 1711.832031 262.414062 1711.042969 262.703125 C 1697.925781 267.460938 1684.414062 270.445312 1670.507812 271.652344 C 1669.285156 269.75 1668.117188 267.816406 1666.8125 265.964844 C 1624.683594 206.160156 1553.492188 191.363281 1491.265625 173.496094 C 1473.535156 168.476562 1456.121094 162.535156 1439.019531 155.671875 C 1422.539062 138 1406.800781 119.363281 1391.488281 100.382812 C 1339.734375 36.25 1290.328125 -31.648438 1225.421875 -80.023438 C 1211.917969 -90.128906 1197.84375 -99.359375 1183.195312 -107.71875 C 1168.546875 -116.082031 1153.4375 -123.503906 1137.871094 -129.992188 C 1122.300781 -136.476562 1106.390625 -141.976562 1090.140625 -146.492188 C 1073.890625 -151.007812 1057.425781 -154.5 1040.742188 -156.972656 C 975.773438 -166.390625 907.878906 -160.152344 848.355469 -127.761719 C 841.046875 -123.859375 834 -119.539062 827.207031 -114.796875 C 820.417969 -110.054688 813.933594 -104.925781 807.753906 -99.414062 C 801.574219 -93.898438 795.746094 -88.035156 790.265625 -81.824219 C 784.785156 -75.613281 779.695312 -69.097656 774.992188 -62.28125 C 756.292969 -34.699219 745.855469 -2.183594 741.710938 31.929688 C 733.402344 100.304688 745.554688 171.03125 723.511719 237.070312 C 700.667969 305.503906 650.832031 357.773438 607.292969 410.035156 C 564.355469 461.578125 521.722656 518.011719 506.699219 588.136719 C 494.019531 647.335938 501.03125 709.738281 521.582031 765.65625 C 542.753906 823.253906 578.347656 873.867188 623.476562 910.371094 C 671.261719 949.019531 729.972656 969.03125 788.441406 973.507812 C 848.347656 978.097656 909.335938 966.230469 965.109375 941.710938 C 994.589844 928.722656 1022.28125 912.65625 1048.195312 893.519531 C 1080.757812 869.542969 1110.96875 841.910156 1141.980469 815.558594 C 1172.640625 789.5 1204.324219 765.039062 1239.03125 746.144531 C 1272.484375 727.9375 1307.734375 714.375 1343.21875 702.058594 C 1414.464844 677.328125 1487.664062 657.070312 1553.617188 616.867188 C 1613.585938 580.308594 1666.21875 526.457031 1688.566406 452.683594 Z M 1688.566406 452.683594 " fill-opacity="1" fill-rule="nonzero"/></g></svg>