<svg xmlns="http://www.w3.org/2000/svg" xmlns:xlink="http://www.w3.org/1999/xlink" width="1640" zoomAndPan="magnify" viewBox="0 0 1230 693.000001" height="924" preserveAspectRatio="xMidYMid meet" version="1.0"><defs><clipPath id="4da04f9fb7"><path d="M 624.328125 452.039062 L 1074.671875 452.039062 L 1074.671875 512.261719 L 624.328125 512.261719 Z M 624.328125 452.039062 " clip-rule="nonzero"/></clipPath><clipPath id="91018a720a"><path d="M 603.222656 337 L 703 337 L 703 476 L 603.222656 476 Z M 603.222656 337 " clip-rule="nonzero"/></clipPath><clipPath id="25bac5c516"><path d="M 923 235.175781 L 1002 235.175781 L 1002 313 L 923 313 Z M 923 235.175781 " clip-rule="nonzero"/></clipPath></defs><path fill="#cf785d" d="M 774.960938 351.402344 C 774.945312 351.402344 774.925781 351.402344 774.910156 351.402344 C 758.117188 349.785156 750.199219 338.246094 747.601562 334.453125 C 747.273438 333.980469 746.9375 333.488281 746.832031 333.398438 C 746.585938 333.257812 746.515625 332.953125 746.65625 332.710938 C 746.796875 332.464844 747.125 332.390625 747.371094 332.53125 C 747.605469 332.667969 747.816406 332.960938 748.441406 333.875 C 750.976562 337.570312 758.6875 348.816406 775.007812 350.382812 C 775.289062 350.410156 775.492188 350.660156 775.464844 350.941406 C 775.441406 351.203125 775.21875 351.402344 774.960938 351.402344 " fill-opacity="1" fill-rule="nonzero"/><path fill="#faac82" d="M 739.375 355.664062 C 738.242188 351.273438 737.03125 347.457031 736.324219 343.550781 C 735.71875 340.207031 736.011719 336.859375 738.472656 334.070312 C 738.921875 333.5625 739.125 332.726562 739.1875 332.019531 C 739.335938 330.390625 739.894531 329.023438 740.808594 327.644531 C 741.351562 326.832031 741.339844 325.550781 741.324219 324.484375 C 741.285156 322.441406 741.015625 320.402344 740.941406 318.359375 C 740.882812 316.691406 741.296875 315.101562 743.042969 314.46875 C 744.675781 313.875 746.140625 314.480469 747.351562 315.675781 C 747.746094 316.066406 748.101562 316.484375 748.425781 316.839844 C 752.253906 316.285156 752.84375 316.648438 753.917969 320.253906 C 754.351562 321.71875 754.855469 322.949219 756.480469 323.640625 C 757.382812 324.027344 758.101562 325.125 758.628906 326.054688 C 759.359375 327.335938 759.828125 328.765625 760.464844 330.261719 C 760.875 330.15625 761.238281 330.132812 761.53125 329.976562 C 764.042969 328.660156 764.730469 328.820312 766.417969 331.023438 C 766.789062 331.511719 767.277344 332.144531 767.792969 332.234375 C 769.753906 332.582031 770.585938 333.882812 771.132812 335.585938 C 771.261719 335.988281 771.589844 336.332031 771.976562 336.9375 C 772.550781 336.359375 773.027344 335.976562 773.382812 335.5 C 773.769531 334.980469 774 334.347656 774.371094 333.816406 C 774.921875 333.019531 775.617188 332.351562 776.691406 332.691406 C 777.800781 333.042969 777.933594 334.027344 777.824219 334.976562 C 777.707031 335.988281 777.390625 336.972656 777.199219 337.976562 C 777.039062 338.828125 776.933594 339.6875 776.765625 340.796875 C 779.902344 339.300781 780.652344 339.421875 782.945312 341.585938 C 783.554688 342.160156 784.171875 342.738281 784.683594 343.398438 C 787.957031 347.621094 789.683594 352.238281 787.292969 357.429688 C 783.628906 365.382812 778.660156 372.453125 771.867188 378.042969 C 767.851562 381.347656 762.988281 382.132812 757.914062 381.574219 C 755.730469 381.335938 753.777344 380.351562 752.191406 378.863281 C 749.964844 376.769531 747.796875 374.597656 745.757812 372.320312 C 743.898438 370.246094 742.207031 368.011719 740.511719 365.792969 C 739.785156 364.839844 739.113281 363.800781 738.632812 362.707031 C 737.484375 360.085938 737.054688 357.484375 739.375 355.664062 " fill-opacity="1" fill-rule="nonzero"/><g clip-path="url(#4da04f9fb7)"><path fill="#f0ded4" d="M 1069.863281 485.382812 C 1077.265625 477.570312 1076.636719 465.652344 1064.351562 461.085938 C 1022.832031 445.667969 937.160156 458.097656 853.242188 458.421875 C 788.320312 458.671875 707.050781 453.34375 648.34375 452.085938 C 636.554688 451.835938 617.75 461.113281 626.664062 478.90625 C 628.238281 482.050781 634.992188 489.441406 638.195312 490.882812 C 665.296875 503.050781 696.773438 504.117188 705.371094 504.71875 C 736.898438 506.917969 769.019531 507.523438 800.386719 511.351562 C 828.46875 514.777344 919.242188 507.445312 1016.277344 507.074219 C 1035.675781 507 1054.539062 501.558594 1069.863281 485.382812 " fill-opacity="1" fill-rule="nonzero"/></g><path fill="#faac82" d="M 725.335938 345.289062 C 725.152344 342.371094 724.652344 339.484375 723.75 336.703125 C 722.570312 333.074219 720.238281 330.871094 716.328125 331.058594 C 715.363281 331.105469 714.398438 331.207031 713.445312 331.382812 C 698.550781 334.109375 684.929688 348.507812 680 361.449219 C 675.753906 372.59375 675.441406 389.03125 673.746094 400.84375 C 671.535156 416.242188 668.066406 427.242188 669.070312 442.773438 C 669.804688 454.199219 677.066406 476.273438 693.109375 469.789062 C 698.390625 467.648438 701.605469 464.503906 703.164062 459.4375 C 709.042969 440.300781 708.105469 416.683594 711.425781 396.9375 C 713.957031 381.902344 722.664062 370.394531 724.855469 355.367188 C 725.339844 352.039062 725.546875 348.644531 725.335938 345.289062 " fill-opacity="1" fill-rule="nonzero"/><path fill="#faac82" d="M 846.515625 450.835938 C 846.363281 439.433594 847.933594 428.058594 846.996094 416.628906 C 846.113281 405.804688 844.921875 395.136719 842.777344 384.457031 C 841.207031 376.632812 839.210938 368.925781 837.296875 361.183594 C 834.789062 351.046875 831.347656 340.667969 822.148438 334.464844 C 817.839844 331.566406 812.496094 330.300781 807.34375 330.800781 C 803.988281 331.125 794.824219 332.757812 799.070312 337.835938 C 799.09375 338.097656 799.144531 338.375 799.222656 338.660156 C 804.394531 356.945312 805.683594 376.507812 808.296875 395.296875 C 810.769531 413.078125 814.296875 430.351562 818.59375 447.765625 C 820.207031 454.320312 823.722656 463.261719 830.644531 465.792969 C 840.515625 469.390625 846.628906 459.261719 846.515625 450.835938 " fill-opacity="1" fill-rule="nonzero"/><path fill="#faac82" d="M 808.328125 367.011719 C 808.335938 364.398438 808.03125 361.816406 807.40625 359.320312 C 807.039062 357.046875 806.558594 354.796875 805.972656 352.578125 C 806.417969 351.773438 806.652344 350.851562 806.5625 349.871094 C 806.105469 345.023438 803.679688 340.75 800.207031 337.53125 C 799.859375 336.902344 799.515625 336.277344 799.167969 335.648438 C 798.464844 334.371094 797.097656 333.695312 795.65625 333.554688 C 794.414062 332.511719 793.0625 331.566406 791.585938 330.738281 C 784.988281 327.03125 777.066406 326.125 769.65625 325.554688 C 760.546875 324.851562 751.375 324.8125 742.269531 325.527344 C 731.878906 326.34375 721.617188 328.1875 711.535156 330.808594 C 706.777344 332.042969 707.644531 338.273438 711.242188 340.15625 C 710.496094 341.714844 710.054688 343.5 709.972656 345.359375 C 709.9375 346.105469 709.925781 346.859375 709.929688 347.613281 C 709.902344 347.761719 709.871094 347.910156 709.847656 348.058594 C 707.003906 356.140625 707.183594 365.046875 710.265625 372.957031 C 709.921875 381.355469 710.296875 389.742188 711.410156 398.023438 C 710.488281 399.054688 709.949219 400.40625 710.246094 401.78125 C 711.433594 407.289062 712.621094 412.800781 713.808594 418.308594 C 713.816406 418.351562 713.820312 418.386719 713.828125 418.429688 C 713.851562 418.535156 713.878906 418.640625 713.902344 418.75 C 715.597656 426.617188 717.292969 434.484375 718.988281 442.355469 C 719.148438 443.109375 719.429688 443.820312 719.808594 444.453125 C 719.914062 444.90625 720.015625 445.359375 720.121094 445.808594 C 720.65625 448.144531 722.214844 450.101562 724.574219 450.386719 C 725.433594 452.902344 726.289062 455.417969 727.144531 457.933594 C 728.164062 460.925781 731.539062 461.769531 734.054688 460.726562 C 748.226562 466.980469 764.628906 465.398438 779.613281 463.078125 C 787.878906 461.800781 796.921875 460.625 803.210938 454.546875 C 807.4375 450.464844 809.671875 444.117188 808.46875 438.421875 C 808.636719 437.828125 808.726562 437.199219 808.722656 436.558594 L 808.667969 422.238281 C 808.667969 421.644531 808.523438 421.085938 808.28125 420.574219 C 808.414062 413.890625 808.214844 407.21875 807.648438 400.5625 C 808.203125 393.488281 808.753906 386.410156 809.304688 379.332031 C 809.371094 378.460938 809.269531 377.601562 809.011719 376.820312 C 809.144531 374.890625 809.277344 372.964844 809.410156 371.039062 C 809.515625 369.558594 809.140625 368.113281 808.328125 367.011719 " fill-opacity="1" fill-rule="nonzero"/><path fill="#ad505b" d="M 686.824219 389.144531 C 691.382812 391.261719 696.578125 392.03125 701.542969 392.480469 C 705.242188 392.8125 708.941406 392.957031 712.648438 393.03125 C 715.515625 379.335938 720.425781 366.03125 722.433594 352.242188 C 722.933594 348.832031 724.511719 348.148438 724.296875 344.710938 C 724.109375 341.71875 723.597656 338.765625 722.671875 335.914062 C 721.460938 332.191406 719.074219 329.9375 715.066406 330.128906 C 714.078125 330.179688 713.089844 330.28125 712.113281 330.460938 C 696.851562 333.257812 684.582031 348.214844 679.527344 361.476562 C 677.25 367.453125 678.332031 377.921875 677.484375 385.410156 C 681.300781 387.738281 682.765625 387.257812 686.824219 389.144531 " fill-opacity="1" fill-rule="nonzero"/><path fill="#ad505b" d="M 798.097656 337.53125 C 802.859375 354.371094 804.5 372.230469 806.671875 389.679688 C 814.488281 389.808594 822.757812 388.417969 829.945312 386.050781 C 834.199219 384.644531 838.605469 382.722656 843.09375 381.4375 C 841.613281 374.683594 839.898438 367.996094 838.238281 361.28125 C 835.597656 350.59375 831.96875 339.648438 822.265625 333.113281 C 817.726562 330.050781 812.09375 328.71875 806.65625 329.246094 C 803.121094 329.589844 793.460938 331.3125 797.933594 336.664062 C 797.960938 336.941406 798.011719 337.234375 798.097656 337.53125 " fill-opacity="1" fill-rule="nonzero"/><path fill="#ffeadc" d="M 805.09375 369.375 C 805.101562 366.824219 804.800781 364.304688 804.183594 361.867188 C 803.820312 359.648438 803.34375 357.453125 802.765625 355.289062 C 803.207031 354.5 803.441406 353.601562 803.351562 352.644531 C 802.902344 347.917969 800.507812 343.742188 797.074219 340.601562 C 796.734375 339.992188 796.394531 339.378906 796.054688 338.765625 C 795.355469 337.515625 794.007812 336.859375 792.585938 336.722656 C 791.363281 335.703125 790.023438 334.78125 788.570312 333.972656 C 786.222656 332.671875 779.28125 334.679688 776.679688 333.972656 C 776.191406 345.394531 772.351562 363.046875 767.996094 371.390625 C 762.480469 381.957031 758.871094 407.96875 749.28125 371.605469 C 746.691406 361.789062 741.015625 339.140625 737.976562 331.71875 C 737.554688 330.691406 737.617188 329.789062 737.984375 329.0625 C 728.375 329.925781 718.882812 331.644531 709.546875 334.042969 C 704.851562 335.25 705.707031 341.332031 709.257812 343.171875 C 708.519531 344.691406 708.085938 346.433594 708.003906 348.246094 C 707.96875 348.976562 707.957031 349.710938 707.960938 350.445312 C 707.933594 350.589844 707.902344 350.738281 707.878906 350.882812 C 705.070312 358.769531 705.25 367.460938 708.289062 375.179688 C 707.953125 383.378906 708.320312 391.566406 709.421875 399.644531 C 708.507812 400.65625 707.980469 401.972656 708.273438 403.3125 C 709.441406 408.691406 710.613281 414.070312 711.785156 419.445312 C 711.792969 419.484375 711.796875 419.523438 711.804688 419.5625 C 711.832031 419.664062 711.855469 419.769531 711.878906 419.875 C 713.550781 427.550781 715.226562 435.230469 716.898438 442.910156 C 717.058594 443.652344 717.335938 444.34375 717.710938 444.960938 C 717.8125 445.402344 717.914062 445.84375 718.015625 446.285156 C 718.546875 448.566406 720.082031 450.476562 722.414062 450.753906 C 723.257812 453.207031 724.105469 455.664062 724.949219 458.117188 C 725.957031 461.039062 729.285156 461.859375 731.773438 460.839844 C 745.761719 466.945312 761.953125 465.402344 776.746094 463.136719 C 784.902344 461.886719 793.828125 460.742188 800.039062 454.808594 C 804.207031 450.824219 806.417969 444.628906 805.226562 439.070312 C 805.394531 438.492188 805.484375 437.878906 805.480469 437.25 L 805.425781 423.277344 C 805.425781 422.699219 805.285156 422.152344 805.042969 421.652344 C 805.175781 415.128906 804.980469 408.617188 804.421875 402.121094 C 804.96875 395.214844 805.511719 388.304688 806.054688 381.398438 C 806.125 380.550781 806.023438 379.710938 805.765625 378.945312 C 805.898438 377.066406 806.03125 375.183594 806.160156 373.304688 C 806.261719 371.859375 805.894531 370.453125 805.09375 369.375 " fill-opacity="1" fill-rule="nonzero"/><path fill="#9ea0a8" d="M 742.050781 327.335938 C 741.855469 326.777344 741.660156 326.21875 741.460938 325.660156 C 732.039062 326.007812 722.679688 327.164062 713.425781 328.980469 C 708.601562 329.925781 709.09375 336.199219 712.574219 338.296875 C 713.335938 338.78125 709.78125 349.714844 709.507812 350.808594 C 708.988281 352.894531 708.359375 355.027344 708.078125 357.164062 C 707.789062 359.367188 707.882812 361.648438 708.121094 363.855469 C 708.347656 365.945312 709.832031 369 709.632812 370.976562 C 708.707031 380.117188 710.566406 382.984375 708.519531 391.738281 C 707.929688 394.253906 709.382812 455.425781 710.144531 460.773438 C 710.792969 465.34375 744.652344 467.328125 744.617188 466.886719 C 743.886719 457.914062 745.507812 364.429688 742.050781 327.335938 " fill-opacity="1" fill-rule="nonzero"/><path fill="#9ea0a8" d="M 808.226562 359.316406 C 807.648438 357.042969 806.898438 354.796875 805.976562 352.578125 C 806.6875 351.769531 807.058594 350.851562 806.914062 349.867188 C 806.207031 345.023438 802.394531 340.753906 796.921875 337.542969 C 796.378906 336.917969 795.835938 336.289062 795.292969 335.664062 C 794.183594 334.386719 792.027344 333.714844 789.757812 333.578125 C 787.804688 332.539062 785.675781 331.59375 783.351562 330.769531 C 781.402344 330.078125 779.378906 329.488281 777.300781 328.976562 C 777.285156 329.039062 798.636719 329.269531 788.4375 329.210938 C 781.242188 329.171875 779.582031 348.988281 779.507812 354.988281 C 779.34375 362.90625 772.925781 371.085938 773.175781 379.003906 C 774.144531 410.042969 772.148438 433.601562 772.265625 464.027344 C 779.082031 462.808594 796.171875 457.761719 801.402344 454.554688 C 808.070312 450.460938 808.75 443.429688 808.746094 442.785156 C 808.746094 442.785156 810.039062 408.40625 809.164062 401.753906 C 810.046875 394.671875 809.203125 361.8125 808.226562 359.316406 " fill-opacity="1" fill-rule="nonzero"/><path fill="#9ea0a8" d="M 727.355469 336.351562 C 727.167969 333.339844 726.652344 330.359375 725.71875 327.488281 C 724.5 323.738281 722.09375 321.46875 718.054688 321.660156 C 717.058594 321.707031 716.066406 321.8125 715.078125 321.992188 C 699.707031 324.8125 685.761719 339.515625 680.671875 352.875 C 676.289062 364.386719 675.96875 381.355469 674.214844 393.546875 C 671.933594 409.445312 668.355469 420.804688 669.386719 436.832031 C 670.148438 448.632812 677.640625 471.421875 694.207031 464.726562 C 699.660156 462.519531 702.976562 459.273438 704.585938 454.039062 C 710.65625 434.28125 709.6875 409.902344 713.117188 389.515625 C 715.726562 373.996094 724.597656 362.269531 726.859375 346.757812 C 727.363281 343.320312 727.574219 339.8125 727.355469 336.351562 " fill-opacity="1" fill-rule="nonzero"/><path fill="#faac82" d="M 1002.65625 324.28125 C 1002.421875 323.257812 1001.625 322.402344 1000.257812 322.457031 C 996.832031 322.582031 985.074219 321.847656 982.550781 321.652344 C 982.203125 321.625 941.496094 319.957031 921.707031 323.710938 C 921.320312 323.539062 912.316406 324.570312 911.101562 328.691406 C 908.78125 336.539062 910.867188 345.148438 915.753906 351.582031 C 921.058594 358.566406 928.769531 362.742188 937.101562 365.089844 C 953.039062 369.582031 972.375 369.773438 986.171875 359.40625 C 993.042969 354.238281 997.15625 347.40625 1000.292969 339.769531 C 1001.371094 339.679688 1004.648438 324.941406 1002.65625 324.28125 " fill-opacity="1" fill-rule="nonzero"/><path fill="#ffeadc" d="M 928 322.863281 C 928 322.863281 931.511719 341.0625 940.597656 348.230469 C 947.253906 353.480469 953.808594 355 961.351562 354.117188 C 968.890625 353.238281 980.359375 346.59375 985.03125 340.902344 C 991.488281 333.035156 992.441406 327.328125 992.441406 327.328125 C 992.441406 327.328125 1000 345.3125 994.929688 354.179688 C 989.859375 363.042969 979.792969 371.09375 966.382812 371.488281 C 952.96875 371.878906 939.152344 373.632812 929.941406 363.1875 C 920.734375 352.738281 917.078125 330.78125 917.234375 327.617188 C 917.390625 324.453125 917.214844 323.695312 917.214844 323.695312 L 928 322.863281 " fill-opacity="1" fill-rule="nonzero"/><path fill="#dd6a4b" d="M 902.3125 325.875 C 891.6875 327.566406 879.082031 332.992188 874.3125 342.210938 C 855.730469 378.121094 860.636719 451.277344 866.082031 461.898438 C 867.914062 463.882812 865.46875 460.148438 867.746094 461.253906 C 871.605469 463.128906 889.832031 460.296875 892.289062 458.773438 C 895.589844 456.734375 899.496094 454.453125 901.554688 450.996094 C 902.933594 448.683594 905.597656 444.785156 905.8125 441.941406 C 905.335938 441.75 905.035156 441.828125 904.472656 441.523438 C 902.964844 440.707031 902.597656 440.886719 901.835938 439.496094 C 901.078125 438.105469 901.199219 435.933594 900.78125 433.9375 C 900.613281 433.097656 900.574219 432.085938 900.453125 430.839844 C 900.363281 429.914062 900.417969 428.519531 900.292969 427.605469 C 900.117188 426.3125 899.988281 425.015625 899.902344 423.714844 C 899.730469 421.117188 899.722656 418.511719 899.839844 415.914062 C 900.066406 410.800781 900.765625 405.722656 901.59375 400.675781 C 901.890625 398.855469 902.164062 397.03125 902.578125 395.234375 C 902.789062 394.3125 903.03125 393.394531 903.3125 392.492188 C 903.527344 391.792969 902.425781 390.648438 902.398438 389.941406 C 902.394531 389.828125 902.394531 389.710938 902.390625 389.597656 C 902.1875 383.441406 904.605469 377.503906 905.984375 371.589844 C 906.335938 368.824219 906.683594 366.058594 907.054688 363.296875 C 907.050781 363.222656 907.054688 363.148438 907.050781 363.074219 C 906.894531 359.941406 906.742188 357.433594 908.046875 354.484375 C 908.386719 353.710938 908.867188 353.1875 909.417969 352.863281 C 912.375 343.140625 916.523438 332.503906 919.007812 324.09375 C 919.417969 322.707031 908.195312 324.941406 902.3125 325.875 " fill-opacity="1" fill-rule="nonzero"/><path fill="#dd6a4b" d="M 1060.410156 446.855469 C 1060.855469 441.9375 1061.300781 436.902344 1061.082031 431.980469 C 1060.148438 410.964844 1064.957031 364.972656 1043.710938 338.972656 C 1036.574219 330.242188 1016.824219 323.148438 1003.71875 322.648438 C 1003.25 322.632812 993.90625 322.101562 990.171875 322.125 C 990.515625 322.464844 993.433594 329.851562 993.710938 330.339844 C 993.75 330.410156 1019.152344 374.246094 1020.0625 384.832031 C 1021.417969 400.617188 1022.683594 429.914062 1018.929688 444.25 C 1017.269531 450.578125 1012.597656 455.636719 1014.742188 461.921875 C 1018.125 471.835938 1028.320312 477.183594 1043.761719 474.796875 C 1050.398438 474.773438 1054.695312 469.222656 1057.007812 463.582031 C 1059.046875 458.613281 1059.84375 453.234375 1060.316406 447.914062 C 1060.351562 447.5625 1060.382812 447.210938 1060.410156 446.855469 " fill-opacity="1" fill-rule="nonzero"/><path fill="#dd6a4b" d="M 1016.0625 450.5625 C 1019.097656 399.78125 1020.835938 399.742188 1021.734375 376.730469 C 1022.210938 364.53125 1009.484375 351.421875 1003.695312 340.59375 C 994.042969 322.539062 999.019531 322.546875 990.171875 322.023438 C 988.78125 321.941406 991.984375 339.253906 983.234375 352.414062 C 979.046875 358.714844 966.355469 364.667969 948.507812 362.859375 C 938.769531 361.875 930.214844 355.257812 925.644531 346.582031 C 921.445312 338.601562 923.25 323.386719 923.25 323.386719 C 922.25 323.414062 916.773438 323.851562 915.8125 323.933594 C 912.664062 335.585938 903.40625 350.457031 901.375 362.359375 C 897.417969 385.484375 902.402344 389.941406 905.433594 423.613281 C 906.527344 435.738281 907.597656 440.441406 908.128906 452.601562 C 908.273438 455.9375 905.042969 460.699219 905.140625 464.039062 C 905.355469 464.050781 905.566406 464.058594 905.78125 464.070312 C 939.363281 465.53125 996.914062 465.78125 998.960938 465.773438 C 1001.125 465.761719 1014.183594 481.898438 1016.0625 450.5625 " fill-opacity="1" fill-rule="nonzero"/><path fill="#faac82" d="M 992.011719 458.070312 C 992.71875 456.773438 1024.410156 448.296875 968.957031 420.742188 C 966.617188 419.578125 963.667969 417.722656 963.363281 416.695312 C 962.855469 414.96875 956.835938 386.261719 950.378906 380.902344 C 949.839844 380.453125 947.144531 380.738281 947.890625 383.398438 C 950.496094 392.640625 951.148438 398.238281 950.96875 398.265625 C 950.410156 398.347656 941.601562 390.128906 937.277344 386.925781 C 935.5625 385.65625 933.761719 384.441406 931.910156 383.355469 C 929.753906 382.09375 926.09375 379.269531 924.261719 381.90625 C 923.25 383.359375 926.15625 385.21875 926.515625 385.449219 C 933.316406 389.746094 937.042969 392.5 941.890625 397.246094 C 941.890625 397.246094 941.59375 397.964844 941.242188 398.21875 C 940.785156 398.546875 935.605469 395.363281 935.023438 394.96875 C 930.410156 391.832031 922.933594 388.09375 917.796875 385.929688 C 915.773438 385.074219 913.199219 385.117188 913.050781 387.425781 C 912.980469 388.484375 913.8125 389.40625 914.710938 389.984375 C 920.480469 393.699219 925.816406 394.246094 935.796875 402.816406 C 935.351562 403.289062 935.367188 403.304688 934.953125 403.800781 C 928.261719 399.5625 921.242188 396.933594 913.277344 394.375 C 911.015625 393.648438 908.359375 396.730469 911.390625 398.351562 C 917.6875 401.71875 931.070312 407.015625 931.96875 407.527344 C 932.425781 407.792969 931.058594 409.09375 931.058594 409.09375 C 930.167969 408.871094 918.242188 404.585938 913.316406 403.75 C 911.589844 403.8125 910.664062 405.878906 912.363281 406.941406 C 916.132812 409.289062 927.316406 412.578125 929.074219 414.578125 C 929.777344 415.378906 934.78125 421.496094 945.902344 427.144531 C 946.742188 427.570312 948.050781 428.75 955.21875 434.117188 C 957.171875 435.582031 958.960938 437.269531 960.324219 438.3125 C 960.078125 438.125 991.507812 458.988281 992.011719 458.070312 " fill-opacity="1" fill-rule="nonzero"/><path fill="#ffeadc" d="M 975.816406 422.589844 C 973.929688 422.597656 972.058594 425.53125 969.773438 428.296875 C 967.488281 431.0625 966.28125 433.144531 964.246094 434.84375 C 962.210938 436.546875 959.730469 438.511719 960.457031 439.3125 C 963.40625 442.574219 976.296875 449.589844 976.296875 449.589844 C 976.296875 449.589844 981.589844 444.945312 984.628906 440.199219 C 987.667969 435.457031 988.757812 432.121094 988.757812 432.121094 C 988.757812 432.121094 977.25 422.585938 975.816406 422.589844 " fill-opacity="1" fill-rule="nonzero"/><path fill="#dd6a4b" d="M 1051.804688 453.285156 C 1048.117188 448.835938 1031.941406 444.488281 1028.042969 439.832031 C 1024.628906 438.667969 1021.183594 437.648438 1017.710938 436.664062 C 1010.859375 434.71875 1007.054688 434.617188 999.71875 432.664062 C 995.632812 431.574219 991.929688 430.09375 987.75 429.25 C 985.367188 428.769531 985.113281 434.699219 977.992188 440.90625 C 977.011719 441.757812 971.921875 446.824219 971.507812 447.878906 C 971.25 448.539062 975.476562 452.152344 982.550781 456.136719 C 992.78125 461.894531 1002.320312 469.445312 1013.914062 471.847656 C 1054.632812 480.273438 1052.046875 472.113281 1056.597656 460.636719 C 1057.910156 457.316406 1053.996094 455.933594 1051.804688 453.285156 " fill-opacity="1" fill-rule="nonzero"/><path fill="#b55136" d="M 976.714844 452.902344 C 976.644531 452.902344 976.570312 452.890625 976.503906 452.859375 C 975.574219 452.433594 975.027344 451.984375 973.707031 450.902344 C 973.292969 450.5625 972.804688 450.160156 972.199219 449.671875 C 971.980469 449.496094 971.945312 449.175781 972.121094 448.953125 C 972.296875 448.734375 972.617188 448.699219 972.839844 448.875 C 973.445312 449.363281 973.941406 449.769531 974.351562 450.109375 C 975.636719 451.164062 976.117188 451.558594 976.925781 451.925781 C 977.183594 452.042969 977.296875 452.347656 977.179688 452.605469 C 977.09375 452.789062 976.910156 452.902344 976.714844 452.902344 " fill-opacity="1" fill-rule="nonzero"/><path fill="#b55136" d="M 1022.109375 441.457031 L 1022.117188 441.457031 Z M 1022.546875 441.714844 C 1022.34375 441.714844 1022.054688 441.636719 1021.601562 441.511719 C 1020.785156 441.289062 1019.261719 440.867188 1016.535156 440.253906 L 1015.972656 440.125 C 1010.648438 438.929688 998.1875 436.132812 987.269531 430.023438 C 987.023438 429.886719 986.9375 429.574219 987.074219 429.328125 C 987.210938 429.082031 987.519531 428.992188 987.769531 429.132812 C 998.554688 435.167969 1010.917969 437.945312 1016.195312 439.128906 L 1016.761719 439.253906 C 1018.953125 439.75 1020.371094 440.121094 1021.277344 440.363281 C 1021.117188 440.035156 1020.996094 439.632812 1020.992188 439.160156 C 1020.855469 403.324219 1019.46875 387.660156 1019.195312 384.882812 C 1019.164062 384.605469 1019.371094 384.351562 1019.648438 384.324219 C 1019.933594 384.289062 1020.179688 384.503906 1020.207031 384.78125 C 1020.488281 387.566406 1021.875 403.273438 1022.015625 439.15625 C 1022.019531 439.898438 1022.496094 440.390625 1022.757812 440.652344 C 1022.90625 440.808594 1023.1875 441.09375 1022.972656 441.453125 C 1022.863281 441.640625 1022.746094 441.714844 1022.546875 441.714844 " fill-opacity="1" fill-rule="nonzero"/><path fill="#ffeadc" d="M 1019.492188 426.410156 L 1008.257812 426.460938 L 1007.679688 426.460938 L 996.441406 426.515625 C 992.632812 426.53125 989.539062 429.664062 989.554688 433.476562 L 995.355469 473.578125 C 995.359375 474.054688 996.402344 476.929688 996.597656 477.347656 C 997.570312 479.40625 999.367188 480.488281 1002.742188 480.472656 L 1007.921875 480.449219 L 1008.496094 480.449219 L 1013.679688 480.425781 C 1017.050781 480.410156 1018.839844 479.3125 1019.792969 477.242188 C 1019.984375 476.824219 1021.003906 473.9375 1021 473.460938 L 1026.441406 433.308594 C 1026.425781 429.496094 1023.296875 426.394531 1019.492188 426.410156 " fill-opacity="1" fill-rule="nonzero"/><path fill="#faac82" d="M 1001.925781 455.71875 C 1004.144531 455.722656 1014.289062 455.449219 1018.109375 453.046875 C 1013.3125 450.65625 1004.222656 453.234375 998.101562 454.640625 C 999.535156 456.171875 1000.753906 455.949219 1001.925781 455.71875 Z M 943.863281 450.578125 C 943.128906 449.183594 943.5 448.476562 945.101562 448.445312 C 946.109375 448.425781 947.136719 448.585938 948.132812 448.792969 C 951.136719 449.421875 954.136719 450.066406 957.121094 450.78125 C 964.398438 452.523438 971.828125 452.804688 979.253906 453.191406 C 980.882812 453.277344 982.074219 452.773438 983.0625 451.417969 C 984.15625 449.917969 983.9375 448.382812 985.242188 447.0625 C 986.210938 446.082031 988.773438 445.316406 989.957031 444.613281 C 990.925781 444.03125 991.84375 444.261719 992.488281 445.4375 C 993.664062 447.570312 994.175781 447.828125 996.421875 447.382812 C 998.980469 446.882812 998.976562 446.863281 1001.503906 446.25 C 1005.195312 445.355469 1011.394531 444.855469 1015.078125 445.699219 C 1017.792969 446.324219 1019.816406 446.769531 1022.558594 447.285156 C 1024.9375 447.929688 1026.539062 448.730469 1025.820312 451.976562 C 1028.511719 453.703125 1027.964844 455.644531 1027.976562 457.957031 C 1026.050781 463.855469 1024.214844 469.445312 1018.132812 472.042969 C 1015.402344 473.207031 1012.71875 473.136719 1009.871094 473.976562 C 1005.203125 475.359375 1000.4375 475.828125 995.539062 475.117188 C 991.316406 474.507812 987.046875 474.117188 982.78125 473.902344 C 976.941406 473.609375 971.078125 473.683594 965.234375 473.398438 C 959.464844 473.113281 952.078125 472.878906 944.796875 471.421875 C 941.839844 470.828125 944.011719 467.1875 943.433594 464.3125 C 943.238281 463.359375 942.855469 462.375 942.324219 461.566406 C 940.707031 459.101562 940.742188 457.492188 942.554688 455.253906 C 943.367188 454.253906 944.074219 453.171875 944.851562 452.101562 C 944.457031 451.5 944.117188 451.0625 943.863281 450.578125 " fill-opacity="1" fill-rule="nonzero"/><path fill="#522f2f" d="M 1028.507812 428.625 C 1027.496094 426.648438 1025.207031 423.015625 1022.089844 423.167969 L 993.484375 423.300781 C 990.710938 423.308594 988.984375 425.816406 988.984375 425.816406 C 988.640625 426.359375 987.648438 427.621094 987 428.710938 C 985.9375 429.019531 985.371094 429.601562 985.375 430.628906 C 985.382812 432.363281 988.175781 433.179688 990.691406 433.753906 L 1024.980469 433.589844 C 1027.996094 433.007812 1030.273438 432.144531 1030.265625 430.414062 C 1030.261719 429.492188 1029.578125 428.941406 1028.507812 428.625 " fill-opacity="1" fill-rule="nonzero"/><path fill="#b3674a" d="M 1025.105469 443.167969 L 990.980469 443.320312 L 990.269531 438.417969 L 1025.769531 438.257812 L 1025.105469 443.167969 " fill-opacity="1" fill-rule="nonzero"/><path fill="#82848c" d="M 744.902344 407.929688 C 744.941406 373.15625 741.570312 357.492188 738.773438 325.941406 C 738.652344 324.601562 737.914062 323.742188 737.089844 323.515625 C 737.082031 323.355469 737.078125 323.199219 737.070312 323.039062 C 736.917969 319.902344 733.199219 319.773438 733.039062 322.671875 C 732.972656 322.640625 732.90625 322.617188 732.839844 322.59375 C 732.65625 321.230469 731.730469 320.046875 730.390625 320.589844 C 723.433594 323.433594 716.855469 327.5 710.839844 332.761719 C 709.824219 333.648438 709.417969 335.605469 710.445312 336.78125 C 715.027344 342.023438 719.925781 346.78125 725.097656 351.007812 C 721.054688 353.558594 719.140625 355.824219 714.820312 359.394531 C 711.964844 361.753906 710.476562 362.773438 714.039062 368.84375 C 725.539062 388.433594 743.792969 428.058594 744.347656 428.445312 C 744.644531 428.460938 744.925781 414.238281 744.902344 407.929688 " fill-opacity="1" fill-rule="nonzero"/><path fill="#9ea0a8" d="M 850.5625 440.183594 C 850.441406 431.714844 849.015625 421.921875 848.359375 414.011719 C 847.421875 402.765625 841.363281 343.554688 822.050781 328.652344 C 817.730469 325.316406 809.023438 323.230469 803.566406 323.75 C 800.015625 324.085938 793.121094 326.882812 797.617188 332.15625 C 797.640625 332.429688 797.695312 332.714844 797.777344 333.011719 C 803.253906 352.007812 804.617188 372.332031 807.378906 391.851562 C 809.464844 406.566406 811.550781 424.394531 814.613281 437.785156 C 812.691406 439.949219 811.390625 436.988281 810.472656 440.054688 C 810.164062 441.085938 810.410156 443.671875 810.089844 444.285156 C 808.8125 446.757812 815.980469 453.421875 817.886719 453.457031 C 818.71875 453.476562 820.140625 454.027344 821.566406 454.535156 C 823.457031 458.335938 825.851562 461.851562 828.699219 463.847656 C 829.460938 465.328125 830.160156 467.175781 830.605469 469.558594 C 831.089844 472.164062 838.246094 468.902344 840.710938 466.792969 C 848.832031 460.671875 850.058594 453.574219 850.5625 440.183594 " fill-opacity="1" fill-rule="nonzero"/><path fill="#82848c" d="M 771.332031 409.222656 C 771.023438 374.449219 773.550781 359.128906 776.121094 327.554688 C 776.230469 326.214844 777.714844 324.984375 778.539062 324.75 C 778.542969 324.59375 778.550781 324.433594 778.554688 324.277344 C 778.683594 321.136719 782.421875 320.980469 782.605469 323.878906 C 782.671875 323.84375 782.738281 323.820312 782.804688 323.796875 C 782.980469 322.433594 783.902344 321.238281 785.25 321.777344 C 792.269531 324.5625 798.914062 328.582031 805.003906 333.796875 C 806.03125 334.675781 806.453125 336.628906 805.429688 337.8125 C 800.867188 343.089844 795.976562 347.882812 790.804688 352.152344 C 794.890625 354.667969 796.835938 356.917969 801.207031 360.457031 C 804.09375 362.792969 805.597656 363.804688 802.066406 369.898438 C 790.652344 389.582031 773.363281 429.648438 772.8125 430.039062 C 772.8125 430.039062 771.355469 415.53125 771.332031 409.222656 " fill-opacity="1" fill-rule="nonzero"/><path fill="#754c4c" d="M 989 429.289062 C 988.859375 429.289062 988.742188 429.003906 988.742188 428.652344 C 988.742188 428.300781 988.851562 428.015625 988.996094 428.015625 L 1025.546875 427.8125 C 1025.6875 427.8125 1025.800781 428.097656 1025.800781 428.449219 C 1025.804688 428.800781 1025.691406 429.085938 1025.550781 429.085938 L 989 429.289062 " fill-opacity="1" fill-rule="nonzero"/><g clip-path="url(#91018a720a)"><path fill="#faac82" d="M 695.125 437.4375 C 693.570312 434.675781 691.949219 432.117188 690.472656 429.898438 C 687.550781 425.5 683.222656 422.378906 679.679688 418.472656 C 676.925781 415.441406 670.625 405.605469 668.757812 401.949219 C 668.355469 401.164062 663.226562 387.640625 661.492188 381.042969 C 660.574219 377.550781 660.453125 374.082031 660.960938 370.535156 C 661.25 368.515625 661.382812 366.46875 661.554688 364.433594 C 661.773438 361.84375 660.851562 359.785156 658.921875 357.988281 C 656.597656 355.832031 654.367188 353.535156 652.402344 351.050781 C 649.992188 348.007812 648.636719 344.316406 648.097656 340.472656 C 647.902344 339.042969 647.199219 337.761719 645.609375 337.703125 C 644.171875 337.648438 643.558594 338.84375 643.171875 340.023438 C 643.035156 340.4375 642.925781 340.863281 642.84375 341.292969 C 642.289062 344.253906 642.546875 347.160156 643.75 349.851562 C 645.078125 352.824219 646.519531 355.746094 647.890625 358.699219 C 647.890625 358.707031 647.894531 358.710938 647.898438 358.71875 C 648.367188 359.734375 647.3125 360.777344 646.292969 360.324219 C 644.050781 359.332031 640.988281 357.558594 638.933594 355.351562 C 635.976562 352.179688 632.101562 349.882812 629.011719 346.8125 C 623.375 341.203125 616.496094 339.082031 608.84375 338.617188 C 606.300781 338.464844 604.617188 339.476562 603.59375 341.640625 C 603.726562 341.976562 603.753906 342.1875 603.867188 342.316406 C 608.761719 347.554688 612.144531 353.828125 615.992188 359.796875 C 617.550781 362.21875 619.640625 364.242188 622.054688 365.800781 C 628.332031 369.859375 630.519531 372.777344 637.023438 376.519531 C 638.851562 377.566406 639.917969 378.859375 640.433594 380.949219 C 641.523438 385.371094 642.644531 389.8125 644.183594 394.09375 C 648.40625 405.84375 650.597656 418.148438 654.828125 429.875 C 656.957031 435.789062 659.238281 441.703125 661.9375 447.382812 C 667.050781 458.144531 672.03125 469.667969 684.160156 474.273438 C 689.773438 476.402344 693.054688 476.183594 697.285156 471.695312 C 706.210938 462.230469 701.199219 448.25 695.125 437.4375 " fill-opacity="1" fill-rule="nonzero"/></g><path fill="#ffeadc" d="M 728.109375 429.273438 L 716.929688 429.242188 L 716.355469 429.238281 L 705.175781 429.203125 C 701.390625 429.195312 698.285156 432.148438 698.277344 435.769531 L 703.75 473.945312 C 703.75 474.398438 704.765625 477.140625 704.960938 477.539062 C 705.910156 479.503906 707.691406 480.546875 711.046875 480.554688 L 716.199219 480.570312 L 716.773438 480.574219 L 721.925781 480.589844 C 725.28125 480.597656 727.070312 479.570312 728.03125 477.609375 C 728.226562 477.210938 729.261719 474.476562 729.261719 474.023438 L 734.96875 435.882812 C 734.980469 432.261719 731.894531 429.289062 728.109375 429.273438 " fill-opacity="1" fill-rule="nonzero"/><path fill="#522f2f" d="M 737.59375 431.449219 C 736.601562 429.558594 734.351562 426.089844 731.25 426.214844 L 702.792969 426.125 C 700.03125 426.117188 698.296875 428.488281 698.296875 428.488281 C 697.953125 429.003906 696.953125 430.191406 696.304688 431.226562 C 695.242188 431.511719 694.675781 432.058594 694.671875 433.039062 C 694.667969 434.683594 697.441406 435.488281 699.933594 436.046875 L 734.046875 436.140625 C 737.050781 435.613281 739.320312 434.808594 739.324219 433.160156 C 739.328125 432.285156 738.65625 431.757812 737.59375 431.449219 " fill-opacity="1" fill-rule="nonzero"/><path fill="#b3674a" d="M 733.566406 445.25 L 699.621094 445.144531 L 698.949219 440.476562 L 734.265625 440.585938 L 733.566406 445.25 " fill-opacity="1" fill-rule="nonzero"/><path fill="#754c4c" d="M 698.722656 432.542969 C 698.578125 432.542969 698.464844 432.261719 698.464844 431.910156 C 698.460938 431.558594 698.574219 431.269531 698.714844 431.269531 L 735.265625 431.070312 C 735.40625 431.070312 735.523438 431.351562 735.523438 431.703125 C 735.527344 432.054688 735.414062 432.339844 735.273438 432.34375 L 698.722656 432.542969 " fill-opacity="1" fill-rule="nonzero"/><path fill="#faac82" d="M 723.191406 457.769531 C 720.644531 457.292969 718.113281 456.742188 715.574219 456.234375 C 713.5 455.820312 711.417969 455.421875 709.289062 455.007812 C 715.289062 453.410156 720.871094 455.296875 727.007812 456.660156 C 725.582031 458.203125 724.359375 457.988281 723.191406 457.769531 Z M 833.984375 451.09375 C 832.683594 447.421875 832.890625 442.902344 829.183594 441.394531 C 823.726562 439.175781 826.5 440.070312 820.628906 440.566406 C 810.136719 441.453125 795.960938 446.035156 765.503906 452.273438 C 762.578125 452.871094 759.597656 453.296875 756.644531 453.746094 C 752.984375 454.304688 749.21875 455.71875 745.472656 455.128906 C 740.921875 454.410156 738.839844 448.78125 735.074219 446.570312 C 734.097656 445.996094 733.183594 446.234375 732.546875 447.414062 C 731.386719 449.554688 730.878906 449.816406 728.625 449.390625 C 726.070312 448.90625 723.535156 448.296875 721.003906 447.703125 C 717.304688 446.835938 713.636719 446.976562 709.960938 447.851562 C 707.246094 448.492188 704.523438 449.097656 701.789062 449.632812 C 698.417969 450.292969 697.871094 451.039062 698.613281 454.28125 C 695.9375 456.027344 695.222656 457.085938 696 459.398438 C 697.964844 465.285156 700.890625 470.527344 706.996094 473.078125 C 709.730469 474.21875 712.53125 475.269531 715.378906 476.085938 C 720.066406 477.429688 724.828125 477.867188 729.722656 477.121094 C 733.941406 476.476562 738.207031 476.050781 742.46875 475.804688 C 754.152344 475.125 765.933594 473.882812 777.589844 473.597656 C 789.554688 473.304688 801.523438 472.265625 813.324219 470.242188 C 822.523438 468.667969 839.890625 467.726562 833.984375 451.09375 " fill-opacity="1" fill-rule="nonzero"/><path fill="#82848c" d="M 840.59375 454.945312 C 839.261719 439.863281 824.335938 434.757812 814.601562 435.21875 C 813.261719 435.285156 800.640625 439.132812 794.707031 442.5625 C 791.757812 444.265625 794.523438 445.28125 794.742188 445.785156 C 794.765625 446.335938 807.761719 446.503906 807.082031 463.429688 C 806.722656 472.382812 803.011719 471.953125 803.011719 471.953125 C 802.242188 472.265625 802.058594 473.453125 809.308594 472.921875 C 813.375 472.625 830.0625 471.832031 834.640625 469.859375 C 835.503906 469.632812 836.335938 469.152344 837.03125 468.394531 C 839.828125 465.351562 840.925781 458.695312 840.59375 454.945312 " fill-opacity="1" fill-rule="nonzero"/><path fill="#faac82" d="M 740.890625 313.777344 C 740.492188 314.046875 739.984375 314.382812 739.367188 314.796875 C 737.578125 313.167969 733.683594 311.128906 733.132812 308.765625 C 732.523438 306.136719 732.707031 303.753906 732.144531 301.113281 C 731.433594 297.777344 734.660156 295.503906 736.980469 293.4375 C 737.890625 292.625 738.964844 292.484375 740.109375 292.902344 C 740.789062 293.152344 741.472656 293.390625 742.738281 293.84375 C 742.339844 292.570312 742.160156 291.726562 741.816406 290.960938 C 740.898438 288.917969 740.882812 287.800781 741.992188 286.914062 C 743.285156 285.882812 744.574219 286.179688 745.84375 287.046875 C 746.191406 287.289062 746.625 287.40625 747.578125 287.828125 C 747.292969 286.402344 747.171875 285.453125 746.910156 284.542969 C 745.996094 281.351562 746.242188 280.757812 749.207031 279.371094 C 749.542969 279.214844 749.847656 278.992188 750.175781 278.824219 C 752.304688 277.71875 752.84375 277.78125 754.5625 279.519531 C 755.070312 280.035156 755.425781 280.699219 755.851562 281.292969 C 756.066406 281.195312 756.28125 281.097656 756.496094 281 C 756.679688 280.132812 756.941406 279.273438 757.042969 278.398438 C 757.636719 273.265625 760.152344 269.082031 763.5625 265.402344 C 765.992188 262.777344 769.824219 263.15625 771.558594 266.277344 C 772.371094 267.734375 773.300781 268.132812 774.820312 268.292969 C 775.941406 268.410156 777.191406 268.957031 778.019531 269.707031 C 779.042969 270.632812 780.09375 271.15625 781.394531 271.460938 C 783.71875 272.003906 785.371094 273.410156 786.234375 275.671875 C 786.765625 277.0625 787.25 278.476562 787.839844 279.839844 C 788.097656 280.433594 788.570312 280.933594 789.230469 281.886719 C 789.679688 280.777344 789.828125 280.15625 790.160156 279.667969 C 790.496094 279.175781 790.996094 278.507812 791.464844 278.46875 C 791.9375 278.433594 792.578125 278.996094 792.933594 279.457031 C 793.316406 279.953125 793.539062 280.621094 793.683594 281.246094 C 794.292969 283.871094 795.144531 286.484375 795.378906 289.144531 C 796.425781 301.183594 795.476562 313.003906 790.289062 324.109375 C 788.765625 327.363281 786.757812 330.464844 784.558594 333.316406 C 781.253906 337.597656 774.34375 338.835938 769.324219 336.628906 C 764.632812 334.5625 760.125 332.273438 756.113281 328.992188 C 752.03125 325.652344 748.359375 322.042969 746.167969 317.15625 C 745.710938 316.144531 745.136719 315.527344 744.011719 315.226562 C 742.96875 314.949219 742.015625 314.316406 740.890625 313.777344 " fill-opacity="1" fill-rule="nonzero"/><path fill="#522f2f" d="M 776.019531 337.230469 C 776.214844 336.914062 776.570312 336.734375 776.910156 336.574219 C 780.023438 335.09375 782.332031 333.460938 784.394531 330.632812 C 785.785156 328.722656 788.320312 324.246094 789.015625 321.921875 C 790.996094 315.304688 792.484375 309.839844 792.878906 303.4375 C 793.261719 297.289062 791.707031 291.832031 788.777344 286.632812 C 785.167969 280.234375 779.90625 274.574219 773.492188 270.816406 C 771.855469 269.855469 770.144531 269.019531 768.382812 268.320312 C 767.230469 267.859375 764.601562 266.453125 763.367188 266.90625 C 761.332031 267.65625 761.722656 271.753906 761.269531 273.453125 C 759.910156 278.511719 757.785156 283.289062 754.761719 287.570312 C 751.847656 291.6875 746.75 294.847656 741.835938 296.023438 C 740.503906 296.339844 737.394531 293.410156 734.6875 295.550781 C 734.332031 295.832031 734.042969 296.183594 733.792969 296.558594 C 733.160156 297.503906 732.804688 298.398438 732.65625 299.960938 C 732.367188 302.988281 733.003906 306.050781 734.488281 308.699219 C 736.445312 312.1875 739.414062 314.898438 743.042969 317.417969 C 744.09375 318.152344 744.105469 319.042969 744.113281 320.074219 C 744.195312 330.425781 743.734375 340.824219 745.050781 351.121094 C 745.765625 356.738281 746.832031 362.429688 749.125 367.636719 C 750.257812 370.203125 751.691406 372.664062 753.585938 374.742188 C 755.207031 376.523438 756.851562 377.761719 756.183594 380.632812 C 755.195312 384.890625 749.550781 384.847656 746.359375 384.699219 C 740.226562 384.414062 734.070312 383.667969 728.210938 381.761719 C 711.460938 376.308594 701.085938 359.984375 705.546875 342.367188 C 708.621094 330.230469 713.964844 318.628906 714.765625 305.992188 C 715.222656 298.785156 714.289062 291.324219 716.378906 284.300781 C 721.398438 267.445312 731.296875 251.457031 749.859375 248.101562 C 757.917969 246.644531 772.460938 248.277344 780.09375 251.988281 C 792.851562 258.191406 795.617188 264.707031 800.941406 277.78125 C 803.21875 283.378906 803.613281 291.585938 804.273438 297.539062 C 805.097656 305.03125 806.132812 312.5 807.261719 319.957031 C 808.953125 331.140625 815.46875 341.601562 812.867188 353.238281 C 811.507812 359.3125 807.921875 365.226562 804.398438 370.28125 C 798.417969 378.871094 787.410156 389.402344 776.101562 383.074219 C 770.152344 379.746094 775.320312 368.367188 776.027344 363.503906 C 777.234375 355.210938 777.207031 346.738281 775.921875 338.460938 C 775.859375 338.066406 776.007812 337.25 776.019531 337.230469 " fill-opacity="1" fill-rule="nonzero"/><path fill="#965947" d="M 745.957031 318.222656 C 745.9375 320.484375 744.902344 321.941406 743.382812 321.882812 C 741.832031 321.820312 740.8125 320.324219 740.914062 318.148438 C 740.941406 317.511719 741 316.800781 741.300781 316.269531 C 741.804688 315.390625 741.855469 314.625 741.515625 313.667969 C 741.320312 313.128906 741.394531 312.320312 741.683594 311.832031 C 741.964844 311.359375 742.679688 310.890625 743.195312 310.898438 C 743.703125 310.90625 744.53125 311.425781 744.648438 311.871094 C 745.195312 313.972656 745.542969 316.117188 745.957031 318.222656 " fill-opacity="1" fill-rule="nonzero"/><path fill="#522f2f" d="M 765.507812 298.800781 C 765.378906 298.371094 765.117188 298.09375 764.800781 297.941406 C 764.621094 297.753906 764.398438 297.609375 764.15625 297.542969 C 763.355469 297.324219 762.652344 297.820312 762.390625 298.558594 C 761.890625 299.964844 761.65625 303.15625 763.875 303.183594 C 766.0625 303.214844 765.9375 300.226562 765.507812 298.800781 " fill-opacity="1" fill-rule="nonzero"/><path fill="#522f2f" d="M 786.453125 298.558594 C 786.511719 297.914062 785.976562 297.207031 785.375 297.074219 C 784.992188 296.988281 784.660156 297.039062 784.378906 297.183594 C 783.898438 297.394531 783.515625 297.902344 783.480469 298.4375 C 783.207031 299.34375 783.246094 300.371094 783.589844 301.25 C 783.816406 301.824219 784.308594 302.335938 784.980469 302.300781 C 785.644531 302.269531 786.160156 301.863281 786.367188 301.238281 C 786.652344 300.382812 786.683594 299.429688 786.453125 298.558594 " fill-opacity="1" fill-rule="nonzero"/><path fill="#522f2f" d="M 768.554688 291.277344 C 767.671875 289.726562 763.625 289.925781 762.226562 290.128906 C 759.761719 290.492188 757.621094 291.734375 755.894531 293.503906 C 755.65625 293.746094 755.742188 294.058594 755.941406 294.234375 C 756.042969 294.398438 756.226562 294.492188 756.464844 294.390625 C 759.996094 292.898438 763.234375 292.78125 766.992188 292.851562 C 767.875 292.871094 769.226562 292.453125 768.554688 291.277344 " fill-opacity="1" fill-rule="nonzero"/><path fill="#522f2f" d="M 789.304688 291.84375 C 788.503906 290.734375 787.855469 290.285156 786.535156 289.773438 C 785.328125 289.308594 784.035156 289.425781 783.132812 290.410156 C 782.445312 291.15625 782.773438 292 783.726562 292.175781 C 784.472656 292.316406 785.285156 292.203125 786.050781 292.316406 C 787.109375 292.476562 788.121094 292.804688 789.097656 293.242188 C 789.382812 293.371094 789.636719 293.207031 789.738281 292.984375 C 789.859375 292.847656 789.445312 292.039062 789.304688 291.84375 " fill-opacity="1" fill-rule="nonzero"/><path fill="#ffeadc" d="M 783.253906 320.417969 C 783.898438 318.980469 782.132812 319.648438 774.992188 320.019531 C 771.335938 320.046875 769.171875 319.625 765.382812 319.621094 C 764.972656 319.621094 764.71875 320.082031 764.890625 320.492188 C 766.109375 323.414062 770.542969 325.648438 775.210938 325.640625 C 778.867188 325.636719 781.980469 323.257812 783.253906 320.417969 " fill-opacity="1" fill-rule="nonzero"/><path fill="#cf785d" d="M 779.226562 314.570312 C 778.679688 314.632812 778.042969 314.625 777.3125 314.539062 C 777.03125 314.503906 776.832031 314.25 776.863281 313.972656 C 776.898438 313.691406 777.152344 313.492188 777.429688 313.523438 C 778.980469 313.703125 780.03125 313.511719 780.390625 312.984375 C 780.753906 312.453125 780.425781 311.5625 780.265625 311.265625 C 776.117188 301.230469 777.0625 297.957031 777.566406 296.195312 C 777.628906 295.980469 777.683594 295.796875 777.714844 295.621094 C 777.765625 295.34375 778.035156 295.160156 778.308594 295.210938 C 778.585938 295.261719 778.769531 295.527344 778.722656 295.804688 C 778.683594 296.015625 778.621094 296.234375 778.546875 296.480469 C 778.109375 298.003906 777.199219 301.164062 781.179688 310.808594 C 781.292969 311.03125 781.976562 312.46875 781.238281 313.558594 C 780.855469 314.121094 780.183594 314.460938 779.226562 314.570312 " fill-opacity="1" fill-rule="nonzero"/><path fill="#ffeadc" d="M 744.03125 314.242188 C 744.039062 316.296875 742.382812 317.96875 740.328125 317.976562 C 738.277344 317.984375 736.605469 316.324219 736.597656 314.269531 C 736.589844 312.210938 738.25 310.539062 740.300781 310.53125 C 742.355469 310.523438 744.023438 312.183594 744.03125 314.242188 " fill-opacity="1" fill-rule="nonzero"/><path fill="#cf785d" d="M 739.960938 308.492188 C 739.90625 308.492188 739.847656 308.488281 739.792969 308.472656 C 739.410156 308.382812 739.171875 308 739.261719 307.617188 C 740.550781 302.074219 737.167969 299.46875 737.023438 299.359375 C 736.707031 299.125 736.640625 298.679688 736.875 298.363281 C 737.109375 298.046875 737.550781 297.980469 737.867188 298.207031 C 738.042969 298.339844 742.164062 301.449219 740.652344 307.941406 C 740.574219 308.269531 740.28125 308.492188 739.960938 308.492188 " fill-opacity="1" fill-rule="nonzero"/><path fill="#cf785d" d="M 736.621094 303.570312 C 736.585938 303.570312 736.550781 303.566406 736.515625 303.5625 C 736.125 303.507812 735.855469 303.148438 735.910156 302.757812 C 736.171875 300.871094 736.792969 300.390625 737.636719 299.914062 C 737.722656 299.863281 737.816406 299.816406 737.90625 299.757812 C 738.242188 299.546875 738.683594 299.652344 738.890625 299.988281 C 739.097656 300.324219 738.992188 300.765625 738.65625 300.972656 C 738.546875 301.039062 738.4375 301.101562 738.335938 301.160156 C 737.800781 301.460938 737.507812 301.625 737.320312 302.953125 C 737.273438 303.308594 736.96875 303.566406 736.621094 303.570312 " fill-opacity="1" fill-rule="nonzero"/><path fill="#754c4c" d="M 730.207031 358.515625 C 730.007812 358.515625 729.820312 358.402344 729.738281 358.207031 L 729.675781 358.066406 C 726.589844 350.941406 722.359375 341.183594 730.304688 325.804688 C 734.695312 317.296875 732.769531 312.773438 731.738281 311.222656 C 726.589844 303.488281 729.347656 295.113281 729.464844 294.761719 C 729.554688 294.492188 729.847656 294.351562 730.113281 294.441406 C 730.378906 294.53125 730.523438 294.820312 730.433594 295.089844 C 730.40625 295.171875 727.726562 303.351562 732.589844 310.65625 C 733.71875 312.359375 735.851562 317.285156 731.210938 326.273438 C 723.492188 341.21875 727.441406 350.335938 730.613281 357.660156 L 730.671875 357.800781 C 730.785156 358.058594 730.667969 358.363281 730.410156 358.472656 C 730.34375 358.503906 730.273438 358.515625 730.207031 358.515625 " fill-opacity="1" fill-rule="nonzero"/><path fill="#754c4c" d="M 790.660156 363.722656 C 790.527344 363.722656 790.394531 363.671875 790.292969 363.566406 C 790.09375 363.363281 790.097656 363.039062 790.300781 362.84375 C 790.335938 362.800781 791.566406 361.289062 793.832031 351.476562 C 796.589844 339.542969 793.753906 324.5625 793.722656 324.414062 C 793.671875 324.136719 793.851562 323.871094 794.128906 323.816406 C 794.402344 323.761719 794.671875 323.941406 794.726562 324.21875 C 794.757812 324.375 797.628906 339.566406 794.828125 351.707031 C 792.46875 361.929688 791.15625 363.4375 791.015625 363.574219 C 790.914062 363.671875 790.789062 363.71875 790.660156 363.722656 " fill-opacity="1" fill-rule="nonzero"/><path fill="#754c4c" d="M 734.273438 290.609375 C 734.011719 290.609375 733.789062 290.410156 733.761719 290.144531 C 733.734375 289.863281 733.941406 289.617188 734.222656 289.585938 C 734.269531 289.582031 739.246094 289.046875 743.554688 284.601562 C 749.839844 278.117188 751.621094 268.691406 751.640625 268.597656 C 751.6875 268.320312 751.953125 268.136719 752.230469 268.1875 C 752.507812 268.238281 752.691406 268.503906 752.644531 268.78125 C 752.570312 269.179688 750.792969 278.601562 744.285156 285.316406 C 739.707031 290.039062 734.535156 290.585938 734.320312 290.605469 C 734.304688 290.609375 734.289062 290.609375 734.273438 290.609375 " fill-opacity="1" fill-rule="nonzero"/><path fill="#faac82" d="M 976.964844 299.8125 C 976.441406 294.746094 971.222656 300.050781 971.222656 300.054688 C 971.222656 300.054688 973.039062 289.449219 971.242188 283.367188 C 971.046875 282.699219 970.667969 282.199219 970.203125 281.859375 C 970.203125 281.859375 968.675781 273.660156 968.488281 273.433594 C 966.773438 270.625 964.011719 262.667969 962.949219 261.585938 C 957.636719 256.171875 939.960938 253.316406 939.445312 253.433594 C 937.875 253.632812 936.320312 253.960938 934.789062 254.4375 C 934.320312 254.582031 930.929688 255.105469 930.175781 255.882812 C 926.890625 259.265625 923.539062 262.828125 921.734375 267.191406 C 916.699219 279.375 919.667969 277.003906 921.710938 283.203125 C 920.15625 286.007812 911.605469 296.644531 911.339844 299.84375 C 911.121094 302.539062 911.566406 302.804688 914.035156 303.839844 C 915.285156 304.363281 917.625 304.449219 917.566406 304.582031 C 917.039062 305.820312 918.019531 311.207031 920.015625 310.457031 C 933.667969 305.34375 922.769531 314.441406 919.792969 315.65625 C 919.742188 315.675781 921.09375 322.21875 921.160156 322.84375 C 921.398438 325.054688 921.324219 328.644531 921.429688 329.210938 C 921.929688 331.9375 924.132812 332.4375 925.847656 332.445312 C 930.828125 332.472656 936.042969 329.738281 940.613281 328.1875 L 963.019531 316.523438 L 976.964844 299.8125 " fill-opacity="1" fill-rule="nonzero"/><path fill="#faac82" d="M 938.1875 325.332031 C 938.320312 325.523438 939.140625 327.824219 939.980469 330.191406 C 940.269531 331.003906 940.5625 331.824219 940.828125 332.570312 C 941.066406 333.234375 941.285156 333.835938 941.464844 334.324219 C 943.925781 340.96875 943.988281 344.9375 950.320312 347.339844 C 953.917969 348.707031 971.65625 341.339844 978.882812 335.03125 C 979.65625 334.359375 989.171875 333.195312 981.050781 322.582031 C 977.644531 314.390625 975.402344 305.796875 974.539062 296.957031 L 938.1875 325.332031 " fill-opacity="1" fill-rule="nonzero"/><g clip-path="url(#25bac5c516)"><path fill="#995743" d="M 1001.570312 265.15625 C 994.859375 237.851562 963.921875 235.945312 963.433594 235.996094 C 951.667969 235.167969 938.375 239.96875 932.441406 244.019531 C 922.941406 250.503906 922.371094 263.835938 923.660156 263.585938 C 933.050781 261.734375 938.925781 268.328125 945.589844 266.574219 C 958.996094 263.039062 959.847656 295.234375 959.882812 299.816406 C 962.890625 303.148438 962.363281 287.632812 969.527344 281.457031 C 969.535156 281.5 969.535156 281.542969 969.546875 281.585938 C 970.242188 284.667969 970.9375 287.746094 971.636719 290.828125 C 971.785156 291.488281 972.328125 291.714844 972.839844 291.632812 C 973.472656 293.554688 974.105469 295.480469 974.734375 297.402344 C 973.835938 299.734375 973.386719 302.203125 973.992188 304.71875 C 974.402344 306.402344 977.40625 312.96875 977.476562 312.359375 C 979.078125 310.769531 986.140625 303.300781 986.535156 302.789062 C 986.84375 302.386719 992.820312 295.21875 994.347656 292.695312 C 997.15625 288.054688 998.652344 281.773438 998.308594 276.003906 C 1001.558594 274.363281 1002.472656 268.824219 1001.570312 265.15625 " fill-opacity="1" fill-rule="nonzero"/></g><path fill="#8e5d42" d="M 976.4375 294.746094 C 978.664062 294.242188 977.59375 295.578125 976.441406 295.902344 C 975.730469 296.101562 975.714844 294.914062 976.4375 294.746094 " fill-opacity="1" fill-rule="nonzero"/><path fill="#522f2f" d="M 931.214844 284.308594 C 931.191406 284.199219 931.167969 284.09375 931.136719 283.988281 C 930.800781 282.828125 929.453125 281.710938 928.398438 282.816406 C 928.054688 283.171875 928.011719 283.757812 927.996094 284.226562 C 927.972656 284.898438 928.023438 285.636719 928.179688 286.292969 C 928.300781 286.816406 928.53125 287.269531 928.957031 287.605469 C 929.171875 287.777344 929.382812 287.960938 929.675781 287.9375 C 930.226562 287.898438 930.660156 287.414062 930.929688 286.96875 C 931.1875 286.546875 931.269531 286.046875 931.292969 285.554688 C 931.304688 285.148438 931.292969 284.714844 931.214844 284.308594 " fill-opacity="1" fill-rule="nonzero"/><path fill="#faac82" d="M 963.648438 289.828125 C 961.894531 296.386719 963.519531 301.753906 966.957031 302.976562 C 970.289062 304.160156 973.964844 300.683594 976.605469 292.375 C 978.664062 285.90625 976.878906 279.929688 973.300781 279.226562 C 969.722656 278.523438 965.402344 283.269531 963.648438 289.828125 " fill-opacity="1" fill-rule="nonzero"/><path fill="#cf785d" d="M 966.816406 296.984375 C 966.433594 296.988281 966.113281 296.679688 966.101562 296.292969 C 965.796875 286.535156 972.558594 283.277344 972.847656 283.144531 C 973.207031 282.976562 973.628906 283.132812 973.796875 283.492188 C 973.960938 283.847656 973.808594 284.273438 973.449219 284.441406 C 973.183594 284.566406 967.253906 287.476562 967.527344 296.25 C 967.539062 296.640625 967.230469 296.972656 966.835938 296.984375 C 966.828125 296.984375 966.824219 296.984375 966.816406 296.984375 " fill-opacity="1" fill-rule="nonzero"/><path fill="#cf785d" d="M 973.171875 290.734375 C 973.160156 290.734375 973.144531 290.734375 973.128906 290.734375 C 972.734375 290.710938 972.4375 290.375 972.457031 289.980469 C 972.585938 287.796875 972.128906 287.402344 971.375 286.75 C 971.242188 286.636719 971.105469 286.519531 970.964844 286.386719 C 970.675781 286.117188 970.664062 285.667969 970.929688 285.378906 C 971.203125 285.089844 971.652344 285.074219 971.941406 285.34375 C 972.0625 285.460938 972.1875 285.566406 972.304688 285.667969 C 973.359375 286.578125 974.039062 287.375 973.882812 290.0625 C 973.859375 290.441406 973.546875 290.734375 973.171875 290.734375 " fill-opacity="1" fill-rule="nonzero"/><path fill="#995743" d="M 924.175781 276.109375 C 923.867188 276.25 923.609375 276.730469 923.617188 276.796875 C 923.449219 277.632812 923.410156 279 924.285156 279.238281 C 925.773438 279.65625 929.140625 276.59375 933.683594 279.105469 C 934.890625 279.769531 936.378906 280.121094 935.957031 278.894531 C 935.136719 276.507812 928.890625 273.945312 924.175781 276.109375 " fill-opacity="1" fill-rule="nonzero"/><path fill="#cf785d" d="M 927.09375 332.953125 C 926.828125 332.953125 926.601562 332.746094 926.585938 332.472656 C 926.566406 332.191406 926.78125 331.949219 927.0625 331.933594 C 927.214844 331.921875 942.363281 330.9375 954.851562 324.535156 C 958.121094 322.863281 961.261719 319.742188 964.191406 315.261719 C 964.347656 315.023438 964.664062 314.957031 964.902344 315.113281 C 965.136719 315.265625 965.203125 315.585938 965.046875 315.820312 C 962.019531 320.453125 958.746094 323.691406 955.316406 325.445312 C 942.632812 331.949219 927.277344 332.945312 927.125 332.953125 C 927.117188 332.953125 927.105469 332.953125 927.09375 332.953125 " fill-opacity="1" fill-rule="nonzero"/><path fill="#cf785d" d="M 945.84375 344.777344 C 945.675781 344.777344 945.507812 344.695312 945.414062 344.539062 C 942.707031 340.242188 938.503906 332.960938 938.464844 332.890625 C 938.320312 332.644531 938.40625 332.332031 938.652344 332.191406 C 938.894531 332.050781 939.207031 332.132812 939.347656 332.378906 C 939.390625 332.449219 943.578125 339.710938 946.273438 343.992188 C 946.425781 344.230469 946.355469 344.546875 946.117188 344.699219 C 946.03125 344.75 945.9375 344.777344 945.84375 344.777344 " fill-opacity="1" fill-rule="nonzero"/><path fill="#cf785d" d="M 970.828125 308.566406 C 970.703125 308.566406 970.574219 308.523438 970.476562 308.429688 C 970.269531 308.238281 970.257812 307.914062 970.449219 307.707031 C 971.960938 306.085938 973.265625 303.011719 973.28125 302.980469 C 973.390625 302.722656 973.691406 302.601562 973.949219 302.710938 C 974.207031 302.820312 974.332031 303.121094 974.222656 303.378906 C 974.164062 303.511719 972.832031 306.648438 971.199219 308.40625 C 971.097656 308.511719 970.960938 308.566406 970.828125 308.566406 " fill-opacity="1" fill-rule="nonzero"/><path fill="#7d402d" d="M 996.734375 286.949219 C 996.65625 286.949219 996.574219 286.929688 996.5 286.890625 C 996.25 286.761719 996.152344 286.453125 996.277344 286.203125 C 996.304688 286.152344 996.972656 284.707031 997.835938 278.34375 C 998.742188 271.667969 993.292969 269.601562 993.238281 269.582031 C 992.972656 269.484375 992.839844 269.195312 992.933594 268.925781 C 993.03125 268.664062 993.324219 268.523438 993.585938 268.621094 C 993.648438 268.644531 999.867188 270.996094 998.847656 278.484375 C 997.945312 285.128906 997.214844 286.609375 997.1875 286.667969 C 997.097656 286.84375 996.921875 286.945312 996.734375 286.949219 " fill-opacity="1" fill-rule="nonzero"/><path fill="#b55136" d="M 900.691406 377.605469 C 900.570312 377.582031 900.457031 377.519531 900.375 377.414062 C 891.152344 365.703125 881.703125 344.117188 881.605469 343.898438 C 881.496094 343.640625 881.613281 343.339844 881.871094 343.226562 C 882.128906 343.113281 882.429688 343.230469 882.542969 343.492188 C 882.636719 343.707031 892.039062 365.171875 901.175781 376.78125 C 901.347656 377.003906 901.3125 377.324219 901.089844 377.5 C 900.972656 377.59375 900.828125 377.625 900.691406 377.605469 " fill-opacity="1" fill-rule="nonzero"/><path fill="#b55136" d="M 1024.589844 374.507812 C 1024.460938 374.554688 1024.3125 374.542969 1024.183594 374.476562 C 1023.933594 374.339844 1023.839844 374.03125 1023.972656 373.78125 C 1024.078125 373.582031 1034.683594 353.746094 1037.472656 347.042969 C 1039.839844 341.351562 1040.34375 339.777344 1040.351562 339.765625 C 1040.4375 339.496094 1040.722656 339.347656 1040.992188 339.429688 C 1041.261719 339.515625 1041.410156 339.804688 1041.324219 340.074219 C 1041.304688 340.136719 1040.808594 341.675781 1038.417969 347.4375 C 1035.609375 354.1875 1024.980469 374.066406 1024.875 374.265625 C 1024.808594 374.382812 1024.707031 374.46875 1024.589844 374.507812 " fill-opacity="1" fill-rule="nonzero"/><path fill="#ffeadc" d="M 946.179688 448.59375 C 946.179688 448.59375 941.554688 471.152344 944.78125 472.84375 C 947.023438 474.019531 962.871094 475.125 964.800781 473.902344 C 966.554688 472.789062 965.292969 468.125 966.015625 463.351562 C 966.179688 462.28125 966.546875 459.449219 966.703125 458.679688 C 967.703125 453.609375 967.882812 451.867188 965.714844 451.371094 C 963.714844 450.90625 946.179688 448.59375 946.179688 448.59375 " fill-opacity="1" fill-rule="nonzero"/><path fill="#dd6a4b" d="M 950.28125 463.839844 C 950.523438 455.082031 951.988281 453.609375 951.984375 448.253906 C 951.984375 447.101562 944.691406 445.777344 942.019531 445.449219 C 934.484375 444.523438 930.277344 444.820312 920.214844 443.699219 C 917.503906 443.398438 907.503906 441.3125 904.898438 441.703125 C 898.996094 442.578125 898.886719 443.675781 893.066406 445 C 889.316406 445.855469 885.941406 448.59375 880.78125 451.082031 C 880.269531 451.332031 870.328125 453.980469 865.40625 460.214844 C 864.765625 461.027344 869.027344 467.023438 869.640625 467.714844 C 871.644531 469.976562 874.203125 471.558594 877.007812 472.644531 C 888.355469 477.039062 901.867188 475.953125 913.839844 476.367188 C 922.058594 476.648438 923.699219 476.378906 931.917969 476.546875 C 936.308594 476.636719 950.792969 475.421875 950.722656 473.761719 C 950.679688 472.78125 950.210938 466.460938 950.28125 463.839844 " fill-opacity="1" fill-rule="nonzero"/><path fill="#b55136" d="M 951.148438 448.039062 C 951.097656 448.039062 951.042969 448.03125 950.984375 448.011719 C 944.578125 445.886719 934.558594 445.09375 924.871094 444.328125 C 910.546875 443.199219 901.722656 442.328125 900.910156 438.851562 C 896.648438 420.648438 902.265625 387.214844 902.324219 386.878906 C 902.371094 386.601562 902.632812 386.417969 902.914062 386.460938 C 903.191406 386.507812 903.375 386.773438 903.332031 387.050781 C 903.269531 387.386719 897.691406 420.617188 901.90625 438.621094 C 902.585938 441.542969 913.957031 442.441406 924.949219 443.308594 C 934.699219 444.078125 944.78125 444.875 951.308594 447.042969 C 951.578125 447.128906 951.71875 447.417969 951.632812 447.6875 C 951.5625 447.902344 951.363281 448.039062 951.148438 448.039062 " fill-opacity="1" fill-rule="nonzero"/><path fill="#cf785d" d="M 998.746094 462.496094 C 998.480469 462.496094 998.253906 462.289062 998.238281 462.019531 C 998.214844 461.738281 998.425781 461.492188 998.710938 461.476562 C 998.886719 461.460938 1016.601562 460.226562 1020.207031 458.46875 C 1021.421875 457.878906 1022.324219 457.335938 1022.332031 457.332031 C 1022.578125 457.1875 1022.890625 457.265625 1023.035156 457.507812 C 1023.179688 457.75 1023.101562 458.066406 1022.859375 458.210938 C 1022.824219 458.230469 1021.910156 458.777344 1020.652344 459.390625 C 1016.871094 461.230469 999.515625 462.445312 998.78125 462.496094 C 998.765625 462.496094 998.757812 462.496094 998.746094 462.496094 " fill-opacity="1" fill-rule="nonzero"/><path fill="#cf785d" d="M 1000.128906 468.011719 C 999.867188 468.011719 999.644531 467.816406 999.621094 467.550781 C 999.59375 467.269531 999.800781 467.019531 1000.078125 466.992188 C 1000.195312 466.980469 1011.3125 465.917969 1015.640625 464.734375 C 1019.898438 463.566406 1022.253906 461.527344 1022.277344 461.507812 C 1022.488281 461.324219 1022.8125 461.34375 1022.996094 461.554688 C 1023.183594 461.769531 1023.164062 462.089844 1022.949219 462.277344 C 1022.847656 462.367188 1020.390625 464.492188 1015.910156 465.71875 C 1011.496094 466.925781 1000.636719 467.964844 1000.175781 468.011719 C 1000.160156 468.011719 1000.148438 468.011719 1000.128906 468.011719 " fill-opacity="1" fill-rule="nonzero"/><path fill="#cf785d" d="M 769.328125 337.140625 C 769.285156 337.140625 769.242188 337.132812 769.199219 337.125 C 768.855469 337.035156 760.738281 334.957031 756.511719 332.0625 C 750.480469 327.929688 748.441406 324.09375 748.355469 323.933594 C 748.226562 323.679688 748.324219 323.371094 748.574219 323.242188 C 748.824219 323.113281 749.132812 323.207031 749.261719 323.457031 C 749.28125 323.496094 751.285156 327.242188 757.089844 331.21875 C 761.164062 334.011719 769.367188 336.109375 769.449219 336.132812 C 769.722656 336.199219 769.890625 336.480469 769.820312 336.753906 C 769.761719 336.984375 769.554688 337.136719 769.328125 337.140625 " fill-opacity="1" fill-rule="nonzero"/><path fill="#727682" d="M 818.261719 434.433594 C 817.605469 434.398438 817.609375 435.417969 818.261719 435.457031 C 833.851562 436.363281 844.25 451.855469 839.363281 466.683594 C 839.15625 467.308594 840.140625 467.574219 840.347656 466.949219 C 845.457031 451.441406 834.484375 435.378906 818.261719 434.433594 " fill-opacity="1" fill-rule="nonzero"/><path fill="#727682" d="M 715.015625 393.207031 C 712.046875 403.96875 710.816406 414.980469 707.949219 425.917969 C 707.785156 426.546875 708.753906 426.816406 708.933594 426.183594 C 712.003906 415.570312 713.03125 404.238281 716 393.472656 C 716.175781 392.839844 715.191406 392.570312 715.015625 393.207031 " fill-opacity="1" fill-rule="nonzero"/><path fill="#cf785d" d="M 707.472656 453.707031 C 705.375 453.496094 703.273438 453.28125 701.175781 453.066406 C 700.519531 453 700.53125 454.023438 701.175781 454.089844 C 703.277344 454.300781 705.378906 454.515625 707.476562 454.730469 C 708.132812 454.796875 708.121094 453.773438 707.472656 453.707031 " fill-opacity="1" fill-rule="nonzero"/><path fill="#cf785d" d="M 721.605469 463 C 713.980469 461.847656 706.476562 460.140625 699.101562 457.886719 C 698.472656 457.695312 698.207031 458.683594 698.835938 458.875 C 706.207031 461.128906 713.714844 462.835938 721.335938 463.988281 C 721.980469 464.085938 722.253906 463.097656 721.605469 463 " fill-opacity="1" fill-rule="nonzero"/><path fill="#cf785d" d="M 716.878906 468.582031 C 711.796875 467.460938 706.875 465.863281 702.109375 463.773438 C 701.511719 463.511719 700.996094 464.394531 701.597656 464.660156 C 706.445312 466.785156 711.441406 468.429688 716.609375 469.570312 C 717.25 469.710938 717.519531 468.726562 716.878906 468.582031 " fill-opacity="1" fill-rule="nonzero"/><path fill="#cf785d" d="M 764.191406 335.867188 C 761.226562 337.640625 758.714844 339.953125 756.683594 342.75 C 756.296875 343.28125 757.183594 343.789062 757.566406 343.261719 C 759.277344 340.90625 761.371094 338.921875 763.785156 337.332031 C 763.902344 337.335938 764.019531 337.300781 764.128906 337.214844 C 764.355469 337.03125 764.585938 336.851562 764.8125 336.667969 C 765.273438 336.300781 764.679688 335.578125 764.191406 335.867188 " fill-opacity="1" fill-rule="nonzero"/><path fill="#cf785d" d="M 644.945312 367.636719 C 640.347656 365.019531 635.402344 363.339844 630.15625 362.640625 C 629.515625 362.554688 629.238281 363.539062 629.890625 363.625 C 635.042969 364.316406 639.910156 365.945312 644.433594 368.523438 C 645.007812 368.847656 645.519531 367.960938 644.945312 367.636719 " fill-opacity="1" fill-rule="nonzero"/><path fill="#cf785d" d="M 624.621094 360.640625 C 621.101562 354.816406 616.980469 349.441406 612.273438 344.53125 C 611.820312 344.054688 611.101562 344.78125 611.554688 345.257812 C 616.199219 350.101562 620.265625 355.414062 623.738281 361.160156 C 624.078125 361.722656 624.960938 361.203125 624.621094 360.640625 " fill-opacity="1" fill-rule="nonzero"/><path fill="#cf785d" d="M 628.832031 358.367188 C 624.722656 353.136719 620.339844 348.148438 615.679688 343.40625 C 615.21875 342.933594 614.496094 343.660156 614.960938 344.132812 C 619.617188 348.875 624.003906 353.863281 628.113281 359.09375 C 628.519531 359.609375 629.234375 358.878906 628.832031 358.367188 " fill-opacity="1" fill-rule="nonzero"/><path fill="#cf785d" d="M 631.574219 355.40625 C 629.296875 352.789062 626.765625 350.453125 623.996094 348.371094 C 623.46875 347.976562 622.964844 348.863281 623.484375 349.253906 C 626.183594 351.285156 628.636719 353.585938 630.851562 356.132812 C 631.285156 356.628906 632.003906 355.902344 631.574219 355.40625 " fill-opacity="1" fill-rule="nonzero"/><path fill="#727682" d="M 811.019531 375.445312 C 810.824219 375.53125 810.589844 375.488281 810.4375 375.328125 C 810.25 375.125 810.257812 374.8125 810.449219 374.617188 C 811.222656 373.660156 820.035156 354.703125 821.078125 351.75 C 822.597656 347.449219 822.578125 344.890625 822.578125 344.867188 C 822.574219 344.582031 822.800781 344.351562 823.082031 344.347656 C 823.363281 344.34375 823.59375 344.566406 823.601562 344.847656 C 823.601562 344.957031 823.628906 347.597656 822.039062 352.09375 C 821.304688 354.171875 812.039062 374.53125 811.160156 375.351562 C 811.117188 375.390625 811.070312 375.421875 811.019531 375.445312 " fill-opacity="1" fill-rule="nonzero"/><path fill="#727682" d="M 707.25 373.632812 C 707.171875 373.613281 707.097656 373.574219 707.035156 373.519531 C 706.113281 372.722656 697.09375 354.992188 696.179688 352.683594 C 694.4375 348.296875 693.457031 343.660156 693.449219 343.613281 C 693.390625 343.335938 693.566406 343.066406 693.84375 343.007812 C 694.117188 342.949219 694.390625 343.128906 694.445312 343.402344 C 694.457031 343.449219 695.417969 348.003906 697.128906 352.308594 C 698.238281 355.109375 706.949219 371.929688 707.71875 372.761719 C 707.929688 372.945312 707.949219 373.261719 707.761719 373.472656 C 707.632812 373.625 707.433594 373.675781 707.25 373.632812 " fill-opacity="1" fill-rule="nonzero"/></svg>