<svg version="1.1" id="Layer_1" xmlns="http://www.w3.org/2000/svg" xmlns:xlink="http://www.w3.org/1999/xlink" x="0px" y="0px"
	 width="100%" viewBox="0 0 1106 1108" enable-background="new 0 0 1106 1108" xml:space="preserve">
<path fill="#FFFFFF" opacity="1.000000" stroke="none" 
	d="
M762.000000,1109.000000 
	C508.028534,1109.000000 254.557083,1109.000000 1.042814,1109.000000 
	C1.042814,739.736816 1.042814,370.473602 1.042814,1.105190 
	C369.554993,1.105190 738.109985,1.105190 1106.832520,1.105190 
	C1106.832520,370.333282 1106.832520,739.666626 1106.832520,1109.000000 
	C992.139832,1109.000000 877.319885,1109.000000 762.000000,1109.000000 
M553.967896,169.209122 
	C553.535522,169.376617 553.103210,169.544113 552.049683,170.006607 
	C461.488861,222.664047 370.938324,275.339264 280.319244,327.896271 
	C277.483856,329.540649 276.431183,331.143524 276.409668,334.421448 
	C276.234833,361.054810 275.837524,387.686707 275.531036,414.319305 
	C275.500549,416.968658 275.623596,419.619812 275.872620,422.925110 
	C285.773193,428.659363 295.635651,434.460724 305.586060,440.107147 
	C313.929993,444.841949 322.376526,449.395935 330.785645,454.828217 
	C329.492737,455.807617 328.284821,456.932678 326.893921,457.744110 
	C311.101318,466.957428 295.243347,476.059875 279.529785,485.405334 
	C278.075562,486.270233 276.660492,488.582397 276.627625,490.250183 
	C276.063538,518.861633 275.697235,547.477173 275.400970,576.093018 
	C275.387299,577.413940 276.435699,578.745911 277.409485,580.592285 
	C278.974365,581.540161 280.522614,582.516785 282.106537,583.431702 
	C367.650970,632.842285 453.191620,682.259399 538.761597,731.625732 
	C544.058594,734.681580 549.588318,737.334106 555.687134,739.958435 
	C606.307800,710.524109 656.926208,681.085938 707.549866,651.656799 
	C747.824036,628.244019 788.115479,604.860901 828.337769,581.359497 
	C829.786743,580.512878 831.515015,578.566223 831.544373,577.100891 
	C832.130432,547.794983 832.502441,518.484680 832.806396,489.174072 
	C832.815735,488.272339 831.631531,487.358215 830.666992,485.813538 
	C814.334534,476.332458 797.988770,466.874146 781.692627,457.331146 
	C780.242371,456.481873 779.114990,455.081238 778.437683,453.587830 
	C795.000610,443.986786 811.611816,434.466675 828.054810,424.664490 
	C829.774841,423.639130 831.448303,420.983459 831.526978,419.019440 
	C831.913574,409.368561 831.753967,399.695770 832.065674,389.241821 
	C832.074463,383.821899 832.083252,378.402008 832.208862,372.067474 
	C832.432312,359.381378 832.715576,346.695679 832.796631,334.008667 
	C832.805847,332.568329 831.677612,331.120758 830.859863,329.065735 
	C830.173523,328.610046 829.509644,328.115326 828.797607,327.704163 
	C750.168274,282.307373 671.544861,236.900513 592.893311,191.542343 
	C580.094177,184.161072 567.169800,176.996826 554.222473,169.748611 
	C554.222473,169.748611 554.241821,169.668411 553.967896,169.209122 
M583.671936,940.935303 
	C600.046204,947.008240 614.232300,944.091370 626.745117,929.128540 
	C626.307861,935.421143 626.200989,940.165344 625.602783,944.846741 
	C624.605042,952.655090 619.947388,957.925415 612.880554,960.828918 
	C605.892151,963.700256 598.391663,964.172791 591.400330,961.434509 
	C584.925842,958.898621 578.967102,955.046204 573.280823,952.037781 
	C569.845032,955.139587 565.960327,958.646606 562.106995,962.125366 
	C573.113281,975.136597 587.107666,979.958679 603.583740,979.287170 
	C633.153259,978.082031 648.068787,962.848999 648.069763,933.390991 
	C648.070557,910.571289 648.070007,887.751648 648.070068,864.931946 
	C648.070129,863.172546 648.070068,861.413147 648.070068,859.597290 
	C641.354004,859.597290 635.311890,859.597290 628.791199,859.597290 
	C628.791199,864.194580 628.791199,868.392273 628.791199,873.449646 
	C627.530701,871.928528 626.906128,871.193054 626.301025,870.441956 
	C614.275146,855.514648 590.903015,853.483582 576.203857,865.766907 
	C552.962708,885.188171 555.865540,927.277405 583.671936,940.935303 
M131.570587,940.126709 
	C135.184235,937.072632 138.797882,934.018616 142.392487,930.980652 
	C146.163788,942.242371 150.737411,945.451599 160.606796,944.555969 
	C165.388153,944.122070 167.444763,942.415955 166.681656,937.437988 
	C166.257446,934.670776 166.692261,931.781067 166.557617,928.955322 
	C166.507797,927.910034 166.183823,926.189026 165.562714,925.969299 
	C160.818222,924.290405 161.536331,920.348694 161.532028,916.769409 
	C161.497955,888.447693 161.512482,860.126038 161.512070,831.804321 
	C161.512039,830.023499 161.512070,828.242615 161.512070,826.396973 
	C153.984146,826.396973 147.092819,826.396973 139.755920,826.396973 
	C139.755920,841.976135 139.755920,857.190491 139.755920,873.476318 
	C138.234909,871.662598 137.400818,870.716980 136.619858,869.729370 
	C125.254372,855.355408 103.192307,853.619812 89.356232,865.706482 
	C76.171791,877.223816 72.491074,891.937500 74.311409,908.541321 
	C77.437927,937.059143 106.168839,953.228149 131.570587,940.126709 
M870.124817,876.510437 
	C861.995239,898.601501 853.865662,920.692566 845.442932,943.580078 
	C852.212830,943.580078 858.307861,943.376587 864.380066,943.661316 
	C867.681580,943.816040 869.008057,942.535095 869.991272,939.552490 
	C872.330322,932.456726 874.882629,925.416748 877.748962,918.520569 
	C878.371887,917.021973 880.648071,915.287415 882.203430,915.247559 
	C893.184937,914.965881 904.178345,915.189331 915.164978,915.036255 
	C917.994141,914.996765 919.282715,916.005005 920.191467,918.622620 
	C922.697327,925.840881 925.438110,932.979614 928.212708,940.100464 
	C928.701904,941.355835 929.767578,943.318359 930.627258,943.350647 
	C937.672607,943.615234 944.732239,943.499939 952.008545,943.499939 
	C951.704773,942.188782 951.645203,941.703247 951.481140,941.256104 
	C938.200989,905.056213 924.889038,868.867981 911.671387,832.645325 
	C910.645874,829.835083 909.128967,828.844116 906.163330,829.004395 
	C901.514954,829.255615 896.828308,829.299072 892.186157,828.996216 
	C888.777405,828.773743 887.220947,829.960693 886.071411,833.198792 
	C881.012085,847.450378 875.657227,861.596985 870.124817,876.510437 
M447.572968,921.893799 
	C460.095276,947.714539 494.439301,951.114807 513.788391,936.673889 
	C531.934814,923.130493 536.487732,896.653137 524.354065,877.431030 
	C511.596130,857.219849 485.807770,853.093811 466.890564,862.066650 
	C444.917145,872.489075 436.503052,898.714783 447.572968,921.893799 
M294.716125,944.383301 
	C303.645721,942.392883 311.154541,937.830566 317.611877,930.814209 
	C319.981415,943.422424 327.131165,947.022949 341.201080,943.041687 
	C341.201080,938.080383 341.260620,932.961792 341.136780,927.847778 
	C341.118225,927.080750 340.171906,926.369019 339.773651,925.572327 
	C338.535858,923.096130 336.435211,920.634888 336.314819,918.090027 
	C335.843170,908.119507 336.431976,898.092773 335.821503,888.136292 
	C335.046509,875.497437 329.034180,865.678345 316.882080,861.186707 
	C297.693115,854.093994 279.692627,857.866516 262.394348,868.768066 
	C264.758240,873.505859 266.996887,877.992615 269.334076,882.676880 
	C271.797363,881.233337 273.615234,880.074829 275.514832,879.070862 
	C284.439606,874.353638 293.764313,871.645020 303.838989,874.567261 
	C312.215912,876.997009 316.398102,885.541199 313.530243,893.903320 
	C301.607666,890.722595 289.710968,890.024353 277.679810,893.808716 
	C258.053528,899.982117 251.556625,922.369568 265.638763,936.603210 
	C273.408875,944.456970 283.294800,945.989746 294.716125,944.383301 
M780.239136,885.316650 
	C775.147644,877.703735 770.117126,870.048584 764.908752,862.516541 
	C763.963623,861.149719 762.335083,859.410645 760.945679,859.339783 
	C754.387451,859.005066 747.802673,859.190674 740.383606,859.190674 
	C741.660950,861.263306 742.361145,862.517822 743.171814,863.696106 
	C749.401611,872.750549 755.642944,881.797180 761.900146,890.832703 
	C769.362061,901.608093 769.350647,901.588135 761.669983,912.381348 
	C754.475403,922.491699 747.329041,932.636353 739.583801,943.582336 
	C746.134705,943.582336 751.752014,943.361877 757.341370,943.662109 
	C760.895874,943.852966 763.101868,942.787537 765.085632,939.729004 
	C770.372070,931.578491 776.043091,923.677429 781.808716,915.318359 
	C787.782898,923.984558 793.410889,932.201965 799.116211,940.365417 
	C799.938232,941.541504 801.099243,943.315186 802.158875,943.355591 
	C809.180908,943.623657 816.218201,943.494385 824.002930,943.494385 
	C814.456970,929.933105 805.625977,917.226135 796.582703,904.672180 
	C794.703491,902.063538 794.737366,900.270081 796.592529,897.683228 
	C804.744019,886.316956 812.688049,874.801697 820.681152,863.322266 
	C821.466980,862.193665 822.074158,860.940674 823.089050,859.182800 
	C816.301453,859.182800 810.311218,858.938721 804.361511,859.323303 
	C802.434082,859.447815 799.966919,860.758728 798.853271,862.317627 
	C793.532654,869.765442 788.631470,877.511719 783.447693,885.060303 
	C783.003479,885.707153 781.580139,885.681641 780.239136,885.316650 
M376.323914,828.896973 
	C376.323853,859.190857 376.310425,889.484802 376.344696,919.778687 
	C376.348053,922.767578 376.437561,925.784485 376.844391,928.739258 
	C377.869354,936.183350 382.014008,941.342041 389.174225,943.577332 
	C398.347717,946.441040 407.282410,944.482178 416.002075,941.291016 
	C416.831146,940.987549 417.945190,939.637451 417.847137,938.920959 
	C417.181335,934.055725 416.225525,929.230103 415.362427,924.386292 
	C399.759979,927.883728 398.024567,926.465698 398.021942,910.930542 
	C398.021851,910.431213 398.022003,909.931824 398.022003,909.432495 
	C398.022064,883.466309 398.026978,857.500061 398.011505,831.533875 
	C398.010468,829.789795 397.855133,828.045837 397.757782,826.014038 
	C391.158478,826.014038 385.179932,825.925964 379.209137,826.102234 
	C378.234222,826.131104 377.293732,827.327026 376.323914,828.896973 
M1006.990479,925.499146 
	C1006.990479,893.440002 1006.990479,861.380859 1006.990479,829.457214 
	C999.205139,829.457214 992.292480,829.457214 985.201660,829.457214 
	C985.201660,867.569275 985.201660,905.299927 985.201660,943.260132 
	C992.540466,943.260132 999.619568,943.260132 1006.990479,943.260132 
	C1006.990479,937.465576 1006.990479,931.981934 1006.990479,925.499146 
M208.739868,943.565857 
	C213.706116,943.565857 218.672363,943.565857 223.756592,943.565857 
	C223.756592,915.233398 223.756592,887.385620 223.756592,859.468567 
	C216.597092,859.468567 209.840729,859.468567 202.932373,859.468567 
	C202.932373,887.594666 202.932373,915.447693 202.932373,943.565552 
	C204.830414,943.565552 206.320328,943.565552 208.739868,943.565857 
M709.247314,867.552063 
	C709.247314,864.941284 709.247314,862.330566 709.247314,859.538879 
	C701.790344,859.538879 694.921936,859.538879 687.936340,859.538879 
	C687.936340,887.617615 687.936340,915.354004 687.936340,943.242249 
	C695.095886,943.242249 701.989319,943.242249 709.247375,943.242249 
	C709.247375,918.125793 709.247375,893.333313 709.247314,867.552063 
M202.518677,841.244751 
	C202.518677,843.168457 202.518677,845.092224 202.518677,847.165649 
	C210.041855,847.165649 216.806030,847.165649 223.785202,847.165649 
	C223.785202,840.086609 223.785202,833.233215 223.785202,826.251831 
	C216.649887,826.251831 209.891296,826.251831 202.519272,826.251831 
	C202.519272,831.082031 202.519272,835.697021 202.518677,841.244751 
M702.418396,826.026062 
	C697.664856,826.026062 692.911255,826.026062 687.951599,826.026062 
	C687.951599,833.369324 687.951599,840.106628 687.951599,847.082275 
	C695.048279,847.082275 701.915955,847.082275 708.978394,847.082275 
	C708.978394,840.050842 708.978394,833.328247 708.978394,826.025757 
	C706.937805,826.025757 705.164429,826.025757 702.418396,826.026062 
z"/>
<path fill="#0165E2" opacity="1.000000" stroke="none" 
	d="
M831.003784,486.449890 
	C831.631531,487.358215 832.815735,488.272339 832.806396,489.174072 
	C832.502441,518.484680 832.130432,547.794983 831.544373,577.100891 
	C831.515015,578.566223 829.786743,580.512878 828.337769,581.359497 
	C788.115479,604.860901 747.824036,628.244019 707.549866,651.656799 
	C656.926208,681.085938 606.307800,710.524109 555.357056,739.584961 
	C555.366882,708.650269 555.706848,678.088928 556.367432,647.346985 
	C620.678284,609.995728 684.670776,572.829102 748.638672,535.620117 
	C749.693604,535.006409 750.447571,533.875305 751.693787,533.026794 
	C752.823303,532.794128 753.669373,532.637512 754.368896,532.229553 
	C776.737610,519.183899 799.110352,506.144989 821.429016,493.014008 
	C824.756226,491.056488 827.818787,488.649139 831.003784,486.449890 
z"/>
<path fill="#0165E2" opacity="1.000000" stroke="none" 
	d="
M276.989441,580.072693 
	C276.435699,578.745911 275.387299,577.413940 275.400970,576.093018 
	C275.697235,547.477173 276.063538,518.861633 276.627625,490.250183 
	C276.660492,488.582397 278.075562,486.270233 279.529785,485.405334 
	C295.243347,476.059875 311.101318,466.957428 326.893921,457.744110 
	C328.284821,456.932678 329.492737,455.807617 331.095123,454.525330 
	C333.655853,453.215088 336.017059,452.398010 338.141052,451.170380 
	C355.767609,440.982971 373.386078,430.780426 390.928314,420.448853 
	C397.725006,416.445892 404.319031,412.098877 411.373108,407.905609 
	C412.513458,407.666992 413.367401,407.571259 414.047058,407.175873 
	C459.979004,380.452759 505.894867,353.702026 551.835632,326.994141 
	C552.535217,326.587433 553.527832,326.684662 554.258850,327.010406 
	C553.751648,336.246368 553.109619,345.016510 553.038269,353.791321 
	C552.862732,375.392853 552.949463,396.996521 552.599365,418.750732 
	C532.551025,430.294647 512.833984,441.687134 492.774597,453.134094 
	C491.425842,454.043640 490.521637,455.074493 489.397888,455.727692 
	C470.235107,466.866486 450.996399,477.875580 431.888184,489.106873 
	C425.413940,492.912262 419.254425,497.253052 412.586304,501.327820 
	C407.115601,503.937134 401.886475,506.355865 396.927460,509.239197 
	C383.481934,517.056763 370.151001,525.071411 356.434387,533.029053 
	C335.841522,544.818420 315.553101,556.525757 295.357422,568.390869 
	C289.105133,572.064148 283.105011,576.166687 276.989441,580.072693 
z"/>
<path fill="#0165E2" opacity="1.000000" stroke="none" 
	d="
M275.675385,422.270111 
	C275.623596,419.619812 275.500549,416.968658 275.531036,414.319305 
	C275.837524,387.686707 276.234833,361.054810 276.409668,334.421448 
	C276.431183,331.143524 277.483856,329.540649 280.319244,327.896271 
	C370.938324,275.339264 461.488861,222.664047 552.754211,169.888580 
	C553.719788,169.736511 553.980774,169.702454 554.241821,169.668411 
	C554.241821,169.668411 554.222473,169.748611 554.155396,170.195984 
	C553.721558,179.422119 553.104675,188.199005 553.037598,196.980072 
	C552.872437,218.594559 552.960022,240.210983 552.614441,261.945007 
	C551.565125,262.480072 550.847290,262.896576 550.129639,263.313477 
	C487.251862,299.841370 424.368988,336.360504 361.523376,372.943665 
	C359.803986,373.944489 358.485565,375.634125 356.606323,376.945618 
	C354.703339,377.503815 353.071320,377.941803 351.660828,378.761139 
	C334.873260,388.512573 318.157684,398.388458 301.339111,408.085754 
	C292.872894,412.967163 284.235413,417.551453 275.675385,422.270111 
z"/>
<path fill="#0165E2" opacity="1.000000" stroke="none" 
	d="
M831.076721,329.676514 
	C831.677612,331.120758 832.805847,332.568329 832.796631,334.008667 
	C832.715576,346.695679 832.432312,359.381378 831.857056,372.820312 
	C831.599243,379.059021 831.693237,384.544891 831.787231,390.030731 
	C831.753967,399.695770 831.913574,409.368561 831.526978,419.019440 
	C831.448303,420.983459 829.774841,423.639130 828.054810,424.664490 
	C811.611816,434.466675 795.000610,443.986786 777.822449,453.884857 
	C776.426575,454.790955 775.705505,455.503174 774.856567,455.993988 
	C750.599792,470.018280 726.317139,483.997772 702.092590,498.077454 
	C700.509155,498.997803 699.355225,500.657257 697.611572,501.903320 
	C695.564209,502.452271 693.778931,502.849457 692.268677,503.722473 
	C669.833496,516.691467 647.445251,529.741760 625.024353,542.735535 
	C601.609924,556.305054 578.172363,569.834534 554.834717,582.883179 
	C555.299866,551.763794 555.675293,521.142822 556.378418,490.348694 
	C575.502930,479.301544 594.305908,468.438141 613.081116,457.526855 
	C614.193787,456.880188 615.082825,455.848663 616.431641,454.987091 
	C620.519165,452.844147 624.261047,450.727539 627.981323,448.573761 
	C649.472595,436.132050 670.970093,423.700867 692.414062,411.178131 
	C693.518188,410.533386 694.148926,409.077972 695.394714,408.095917 
	C697.021423,407.894135 698.408081,407.865143 699.462219,407.258453 
	C716.051453,397.711029 732.606567,388.104034 749.130676,378.444275 
	C750.021118,377.923737 750.569641,376.818359 751.633179,376.032959 
	C752.917114,375.742310 753.921875,375.535522 754.762146,375.046204 
	C775.389404,363.034668 796.022217,351.032135 816.595520,338.928680 
	C821.529297,336.026062 826.255188,332.770020 831.076721,329.676514 
z"/>
<path fill="#4993EB" opacity="1.000000" stroke="none" 
	d="
M277.199463,580.332520 
	C283.105011,576.166687 289.105133,572.064148 295.357422,568.390869 
	C315.553101,556.525757 335.841522,544.818420 356.768066,533.149597 
	C357.994415,533.620911 358.526733,534.027588 359.102112,534.359924 
	C413.005371,565.491821 466.898102,596.642090 520.829285,627.725586 
	C532.496948,634.450317 544.303955,640.933289 556.046814,647.527649 
	C555.706848,678.088928 555.366882,708.650269 555.018311,739.692932 
	C549.588318,737.334106 544.058594,734.681580 538.761597,731.625732 
	C453.191620,682.259399 367.650970,632.842285 282.106537,583.431702 
	C280.522614,582.516785 278.974365,581.540161 277.199463,580.332520 
z"/>
<path fill="#4993EB" opacity="1.000000" stroke="none" 
	d="
M830.968262,329.371124 
	C826.255188,332.770020 821.529297,336.026062 816.595520,338.928680 
	C796.022217,351.032135 775.389404,363.034668 754.762146,375.046204 
	C753.921875,375.535522 752.917114,375.742310 751.265625,375.987366 
	C748.207581,374.616974 745.846252,373.385986 743.542114,372.055847 
	C716.878601,356.662659 690.218445,341.263733 663.567932,325.847961 
	C626.689209,304.515747 589.819519,283.167847 552.945984,261.826630 
	C552.960022,240.210983 552.872437,218.594559 553.037598,196.980072 
	C553.104675,188.199005 553.721558,179.422119 554.195801,170.187805 
	C567.169800,176.996826 580.094177,184.161072 592.893311,191.542343 
	C671.544861,236.900513 750.168274,282.307373 828.797607,327.704163 
	C829.509644,328.115326 830.173523,328.610046 830.968262,329.371124 
z"/>
<path fill="#0567E3" opacity="1.000000" stroke="none" 
	d="
M583.317688,940.797852 
	C555.865540,927.277405 552.962708,885.188171 576.203857,865.766907 
	C590.903015,853.483582 614.275146,855.514648 626.301025,870.441956 
	C626.906128,871.193054 627.530701,871.928528 628.791199,873.449646 
	C628.791199,868.392273 628.791199,864.194580 628.791199,859.597290 
	C635.311890,859.597290 641.354004,859.597290 648.070068,859.597290 
	C648.070068,861.413147 648.070129,863.172546 648.070068,864.931946 
	C648.070007,887.751648 648.070557,910.571289 648.069763,933.390991 
	C648.068787,962.848999 633.153259,978.082031 603.583740,979.287170 
	C587.107666,979.958679 573.113281,975.136597 562.106995,962.125366 
	C565.960327,958.646606 569.845032,955.139587 573.280823,952.037781 
	C578.967102,955.046204 584.925842,958.898621 591.400330,961.434509 
	C598.391663,964.172791 605.892151,963.700256 612.880554,960.828918 
	C619.947388,957.925415 624.605042,952.655090 625.602783,944.846741 
	C626.200989,940.165344 626.307861,935.421143 626.745117,929.128540 
	C614.232300,944.091370 600.046204,947.008240 583.317688,940.797852 
M625.752686,913.534546 
	C625.976929,908.086731 626.360901,902.639954 626.393799,897.190979 
	C626.475220,883.702148 611.138428,872.598206 598.409607,877.125061 
	C587.888123,880.866943 583.728577,889.415710 582.633972,899.868164 
	C581.472900,910.955261 588.418457,922.219910 598.388916,925.537598 
	C608.942200,929.049255 619.125793,924.796387 625.752686,913.534546 
z"/>
<path fill="#0366E2" opacity="1.000000" stroke="none" 
	d="
M131.274506,940.348022 
	C106.168839,953.228149 77.437927,937.059143 74.311409,908.541321 
	C72.491074,891.937500 76.171791,877.223816 89.356232,865.706482 
	C103.192307,853.619812 125.254372,855.355408 136.619858,869.729370 
	C137.400818,870.716980 138.234909,871.662598 139.755920,873.476318 
	C139.755920,857.190491 139.755920,841.976135 139.755920,826.396973 
	C147.092819,826.396973 153.984146,826.396973 161.512070,826.396973 
	C161.512070,828.242615 161.512039,830.023499 161.512070,831.804321 
	C161.512482,860.126038 161.497955,888.447693 161.532028,916.769409 
	C161.536331,920.348694 160.818222,924.290405 165.562714,925.969299 
	C166.183823,926.189026 166.507797,927.910034 166.557617,928.955322 
	C166.692261,931.781067 166.257446,934.670776 166.681656,937.437988 
	C167.444763,942.415955 165.388153,944.122070 160.606796,944.555969 
	C150.737411,945.451599 146.163788,942.242371 142.392487,930.980652 
	C138.797882,934.018616 135.184235,937.072632 131.274506,940.348022 
M96.055092,902.387756 
	C97.145737,906.527649 97.597137,910.983154 99.454414,914.744568 
	C103.909523,923.767212 114.746231,928.559631 123.718483,926.169861 
	C134.717422,923.240295 139.905777,916.467834 139.905273,905.041199 
	C139.905151,902.382446 139.907730,899.723633 139.905136,897.064880 
	C139.892776,884.399536 125.428848,873.388550 113.146027,876.692871 
	C103.077759,879.401489 97.128502,888.037537 96.055092,902.387756 
z"/>
<path fill="#0667E3" opacity="1.000000" stroke="none" 
	d="
M870.267151,876.145996 
	C875.657227,861.596985 881.012085,847.450378 886.071411,833.198792 
	C887.220947,829.960693 888.777405,828.773743 892.186157,828.996216 
	C896.828308,829.299072 901.514954,829.255615 906.163330,829.004395 
	C909.128967,828.844116 910.645874,829.835083 911.671387,832.645325 
	C924.889038,868.867981 938.200989,905.056213 951.481140,941.256104 
	C951.645203,941.703247 951.704773,942.188782 952.008545,943.499939 
	C944.732239,943.499939 937.672607,943.615234 930.627258,943.350647 
	C929.767578,943.318359 928.701904,941.355835 928.212708,940.100464 
	C925.438110,932.979614 922.697327,925.840881 920.191467,918.622620 
	C919.282715,916.005005 917.994141,914.996765 915.164978,915.036255 
	C904.178345,915.189331 893.184937,914.965881 882.203430,915.247559 
	C880.648071,915.287415 878.371887,917.021973 877.748962,918.520569 
	C874.882629,925.416748 872.330322,932.456726 869.991272,939.552490 
	C869.008057,942.535095 867.681580,943.816040 864.380066,943.661316 
	C858.307861,943.376587 852.212830,943.580078 845.442932,943.580078 
	C853.865662,920.692566 861.995239,898.601501 870.267151,876.145996 
M910.849854,887.642944 
	C907.053711,876.392883 903.257568,865.142822 899.461426,853.892761 
	C899.089844,853.939514 898.718201,853.986328 898.346619,854.033142 
	C893.168640,868.917725 887.990723,883.802368 882.764404,898.825989 
	C893.725586,898.825989 903.894348,898.825989 914.552063,898.825989 
	C913.276733,894.968933 912.190308,891.683228 910.849854,887.642944 
z"/>
<path fill="#4993EB" opacity="1.000000" stroke="none" 
	d="
M275.773987,422.597595 
	C284.235413,417.551453 292.872894,412.967163 301.339111,408.085754 
	C318.157684,398.388458 334.873260,388.512573 351.660828,378.761139 
	C353.071320,377.941803 354.703339,377.503815 356.970764,376.916931 
	C362.920776,379.852203 368.183868,382.671295 373.333984,385.683624 
	C385.918976,393.044373 398.451660,400.494476 411.005402,407.908630 
	C404.319031,412.098877 397.725006,416.445892 390.928314,420.448853 
	C373.386078,430.780426 355.767609,440.982971 338.141052,451.170380 
	C336.017059,452.398010 333.655853,453.215088 331.091125,454.126221 
	C322.376526,449.395935 313.929993,444.841949 305.586060,440.107147 
	C295.635651,434.460724 285.773193,428.659363 275.773987,422.597595 
z"/>
<path fill="#4993EB" opacity="1.000000" stroke="none" 
	d="
M698.001465,501.972900 
	C699.355225,500.657257 700.509155,498.997803 702.092590,498.077454 
	C726.317139,483.997772 750.599792,470.018280 774.856567,455.993988 
	C775.705505,455.503174 776.426575,454.790955 777.522461,454.059296 
	C779.114990,455.081238 780.242371,456.481873 781.692627,457.331146 
	C797.988770,466.874146 814.334534,476.332458 830.835388,486.131714 
	C827.818787,488.649139 824.756226,491.056488 821.429016,493.014008 
	C799.110352,506.144989 776.737610,519.183899 754.368896,532.229553 
	C753.669373,532.637512 752.823303,532.794128 751.325806,532.971985 
	C741.834290,527.848877 733.019348,522.895203 724.302917,517.774048 
	C715.485046,512.593262 706.764587,507.246765 698.001465,501.972900 
z"/>
<path fill="#0467E3" opacity="1.000000" stroke="none" 
	d="
M447.387390,921.566772 
	C436.503052,898.714783 444.917145,872.489075 466.890564,862.066650 
	C485.807770,853.093811 511.596130,857.219849 524.354065,877.431030 
	C536.487732,896.653137 531.934814,923.130493 513.788391,936.673889 
	C494.439301,951.114807 460.095276,947.714539 447.387390,921.566772 
M498.555634,879.776917 
	C486.268311,873.033813 474.218719,876.149719 468.052917,888.060669 
	C463.955505,895.975891 463.680481,904.326111 467.079926,912.662231 
	C470.452881,920.933533 476.563477,925.928589 485.488007,926.579224 
	C493.584351,927.169495 499.926422,923.568970 504.407043,916.760254 
	C511.996094,905.228149 509.768616,889.755554 498.555634,879.776917 
z"/>
<path fill="#0567E3" opacity="1.000000" stroke="none" 
	d="
M294.286316,944.447754 
	C283.294800,945.989746 273.408875,944.456970 265.638763,936.603210 
	C251.556625,922.369568 258.053528,899.982117 277.679810,893.808716 
	C289.710968,890.024353 301.607666,890.722595 313.530243,893.903320 
	C316.398102,885.541199 312.215912,876.997009 303.838989,874.567261 
	C293.764313,871.645020 284.439606,874.353638 275.514832,879.070862 
	C273.615234,880.074829 271.797363,881.233337 269.334076,882.676880 
	C266.996887,877.992615 264.758240,873.505859 262.394348,868.768066 
	C279.692627,857.866516 297.693115,854.093994 316.882080,861.186707 
	C329.034180,865.678345 335.046509,875.497437 335.821503,888.136292 
	C336.431976,898.092773 335.843170,908.119507 336.314819,918.090027 
	C336.435211,920.634888 338.535858,923.096130 339.773651,925.572327 
	C340.171906,926.369019 341.118225,927.080750 341.136780,927.847778 
	C341.260620,932.961792 341.201080,938.080383 341.201080,943.041687 
	C327.131165,947.022949 319.981415,943.422424 317.611877,930.814209 
	C311.154541,937.830566 303.645721,942.392883 294.286316,944.447754 
M308.235931,905.120911 
	C300.660858,903.544678 293.165466,902.825439 285.840027,906.370178 
	C281.421875,908.508179 278.643860,911.606140 278.672760,916.737244 
	C278.702271,921.978516 281.434052,925.536621 285.917419,927.748413 
	C294.623505,932.043579 308.827026,927.369263 313.469360,918.817932 
	C316.652527,912.954468 314.733704,907.061646 308.235931,905.120911 
z"/>
<path fill="#0768E3" opacity="1.000000" stroke="none" 
	d="
M780.425415,885.642578 
	C781.580139,885.681641 783.003479,885.707153 783.447693,885.060303 
	C788.631470,877.511719 793.532654,869.765442 798.853271,862.317627 
	C799.966919,860.758728 802.434082,859.447815 804.361511,859.323303 
	C810.311218,858.938721 816.301453,859.182800 823.089050,859.182800 
	C822.074158,860.940674 821.466980,862.193665 820.681152,863.322266 
	C812.688049,874.801697 804.744019,886.316956 796.592529,897.683228 
	C794.737366,900.270081 794.703491,902.063538 796.582703,904.672180 
	C805.625977,917.226135 814.456970,929.933105 824.002930,943.494385 
	C816.218201,943.494385 809.180908,943.623657 802.158875,943.355591 
	C801.099243,943.315186 799.938232,941.541504 799.116211,940.365417 
	C793.410889,932.201965 787.782898,923.984558 781.808716,915.318359 
	C776.043091,923.677429 770.372070,931.578491 765.085632,939.729004 
	C763.101868,942.787537 760.895874,943.852966 757.341370,943.662109 
	C751.752014,943.361877 746.134705,943.582336 739.583801,943.582336 
	C747.329041,932.636353 754.475403,922.491699 761.669983,912.381348 
	C769.350647,901.588135 769.362061,901.608093 761.900146,890.832703 
	C755.642944,881.797180 749.401611,872.750549 743.171814,863.696106 
	C742.361145,862.517822 741.660950,861.263306 740.383606,859.190674 
	C747.802673,859.190674 754.387451,859.005066 760.945679,859.339783 
	C762.335083,859.410645 763.963623,861.149719 764.908752,862.516541 
	C770.117126,870.048584 775.147644,877.703735 780.425415,885.642578 
z"/>
<path fill="#0869E3" opacity="1.000000" stroke="none" 
	d="
M376.330627,828.440247 
	C377.293732,827.327026 378.234222,826.131104 379.209137,826.102234 
	C385.179932,825.925964 391.158478,826.014038 397.757782,826.014038 
	C397.855133,828.045837 398.010468,829.789795 398.011505,831.533875 
	C398.026978,857.500061 398.022064,883.466309 398.022003,909.432495 
	C398.022003,909.931824 398.021851,910.431213 398.021942,910.930542 
	C398.024567,926.465698 399.759979,927.883728 415.362427,924.386292 
	C416.225525,929.230103 417.181335,934.055725 417.847137,938.920959 
	C417.945190,939.637451 416.831146,940.987549 416.002075,941.291016 
	C407.282410,944.482178 398.347717,946.441040 389.174225,943.577332 
	C382.014008,941.342041 377.869354,936.183350 376.844391,928.739258 
	C376.437561,925.784485 376.348053,922.767578 376.344696,919.778687 
	C376.310425,889.484802 376.323853,859.190857 376.330627,828.440247 
z"/>
<path fill="#0467E3" opacity="1.000000" stroke="none" 
	d="
M1006.990479,925.998718 
	C1006.990479,931.981934 1006.990479,937.465576 1006.990479,943.260132 
	C999.619568,943.260132 992.540466,943.260132 985.201660,943.260132 
	C985.201660,905.299927 985.201660,867.569275 985.201660,829.457214 
	C992.292480,829.457214 999.205139,829.457214 1006.990479,829.457214 
	C1006.990479,861.380859 1006.990479,893.440002 1006.990479,925.998718 
z"/>
<path fill="#0365E2" opacity="1.000000" stroke="none" 
	d="
M208.275055,943.565674 
	C206.320328,943.565552 204.830414,943.565552 202.932373,943.565552 
	C202.932373,915.447693 202.932373,887.594666 202.932373,859.468567 
	C209.840729,859.468567 216.597092,859.468567 223.756592,859.468567 
	C223.756592,887.385620 223.756592,915.233398 223.756592,943.565857 
	C218.672363,943.565857 213.706116,943.565857 208.275055,943.565674 
z"/>
<path fill="#0365E2" opacity="1.000000" stroke="none" 
	d="
M709.247314,868.046387 
	C709.247375,893.333313 709.247375,918.125793 709.247375,943.242249 
	C701.989319,943.242249 695.095886,943.242249 687.936340,943.242249 
	C687.936340,915.354004 687.936340,887.617615 687.936340,859.538879 
	C694.921936,859.538879 701.790344,859.538879 709.247314,859.538879 
	C709.247314,862.330566 709.247314,864.941284 709.247314,868.046387 
z"/>
<path fill="#0366E2" opacity="1.000000" stroke="none" 
	d="
M202.518982,840.778442 
	C202.519272,835.697021 202.519272,831.082031 202.519272,826.251831 
	C209.891296,826.251831 216.649887,826.251831 223.785202,826.251831 
	C223.785202,833.233215 223.785202,840.086609 223.785202,847.165649 
	C216.806030,847.165649 210.041855,847.165649 202.518677,847.165649 
	C202.518677,845.092224 202.518677,843.168457 202.518982,840.778442 
z"/>
<path fill="#0366E2" opacity="1.000000" stroke="none" 
	d="
M702.904663,826.025879 
	C705.164429,826.025757 706.937805,826.025757 708.978394,826.025757 
	C708.978394,833.328247 708.978394,840.050842 708.978394,847.082275 
	C701.915955,847.082275 695.048279,847.082275 687.951599,847.082275 
	C687.951599,840.106628 687.951599,833.369324 687.951599,826.026062 
	C692.911255,826.026062 697.664856,826.026062 702.904663,826.025879 
z"/>
<path fill="#4993EB" opacity="1.000000" stroke="none" 
	d="
M831.926453,389.636292 
	C831.693237,384.544891 831.599243,379.059021 831.798645,373.277649 
	C832.083252,378.402008 832.074463,383.821899 831.926453,389.636292 
z"/>
<path fill="#4993EB" opacity="1.000000" stroke="none" 
	d="
M554.104858,169.438766 
	C553.980774,169.702454 553.719788,169.736511 553.064819,169.741089 
	C553.103210,169.544113 553.535522,169.376617 554.104858,169.438766 
z"/>
<path fill="#FDFEFF" opacity="1.000000" stroke="none" 
	d="
M697.611572,501.903320 
	C706.764587,507.246765 715.485046,512.593262 724.302917,517.774048 
	C733.019348,522.895203 741.834290,527.848877 750.973999,532.930847 
	C750.447571,533.875305 749.693604,535.006409 748.638672,535.620117 
	C684.670776,572.829102 620.678284,609.995728 556.367432,647.346985 
	C544.303955,640.933289 532.496948,634.450317 520.829285,627.725586 
	C466.898102,596.642090 413.005371,565.491821 359.102112,534.359924 
	C358.526733,534.027588 357.994415,533.620911 357.108307,533.128418 
	C370.151001,525.071411 383.481934,517.056763 396.927460,509.239197 
	C401.886475,506.355865 407.115601,503.937134 412.710876,501.632324 
	C413.744476,502.331360 414.266418,502.743011 414.835999,503.072266 
	C450.640564,523.771606 486.431061,544.495361 522.268005,565.138550 
	C533.026611,571.335876 543.915588,577.306885 554.744873,583.381531 
	C578.172363,569.834534 601.609924,556.305054 625.024353,542.735535 
	C647.445251,529.741760 669.833496,516.691467 692.268677,503.722473 
	C693.778931,502.849457 695.564209,502.452271 697.611572,501.903320 
z"/>
<path fill="#FDFEFF" opacity="1.000000" stroke="none" 
	d="
M411.373108,407.905609 
	C398.451660,400.494476 385.918976,393.044373 373.333984,385.683624 
	C368.183868,382.671295 362.920776,379.852203 357.344635,376.973877 
	C358.485565,375.634125 359.803986,373.944489 361.523376,372.943665 
	C424.368988,336.360504 487.251862,299.841370 550.129639,263.313477 
	C550.847290,262.896576 551.565125,262.480072 552.614441,261.945007 
	C589.819519,283.167847 626.689209,304.515747 663.567932,325.847961 
	C690.218445,341.263733 716.878601,356.662659 743.542114,372.055847 
	C745.846252,373.385986 748.207581,374.616974 750.909912,375.939636 
	C750.569641,376.818359 750.021118,377.923737 749.130676,378.444275 
	C732.606567,388.104034 716.051453,397.711029 699.462219,407.258453 
	C698.408081,407.865143 697.021423,407.894135 695.263367,407.780334 
	C664.686218,389.971771 634.656067,372.538361 604.575806,355.191833 
	C587.888306,345.568542 571.117126,336.090302 554.383667,326.546692 
	C553.527832,326.684662 552.535217,326.587433 551.835632,326.994141 
	C505.894867,353.702026 459.979004,380.452759 414.047058,407.175873 
	C413.367401,407.571259 412.513458,407.666992 411.373108,407.905609 
z"/>
<path fill="#4993EB" opacity="1.000000" stroke="none" 
	d="
M554.834717,582.883179 
	C543.915588,577.306885 533.026611,571.335876 522.268005,565.138550 
	C486.431061,544.495361 450.640564,523.771606 414.835999,503.072266 
	C414.266418,502.743011 413.744476,502.331360 413.075684,501.653687 
	C419.254425,497.253052 425.413940,492.912262 431.888184,489.106873 
	C450.996399,477.875580 470.235107,466.866486 489.397888,455.727692 
	C490.521637,455.074493 491.425842,454.043640 492.724548,453.485413 
	C494.220276,454.811310 495.301697,456.048370 496.646210,456.836823 
	C507.981354,463.483826 519.322388,470.123047 530.747437,476.613800 
	C539.114929,481.367584 547.611633,485.894043 556.050720,490.521820 
	C555.675293,521.142822 555.299866,551.763794 554.834717,582.883179 
z"/>
<path fill="#4993EB" opacity="1.000000" stroke="none" 
	d="
M554.258850,327.010376 
	C571.117126,336.090302 587.888306,345.568542 604.575806,355.191833 
	C634.656067,372.538361 664.686218,389.971771 694.868652,407.684448 
	C694.148926,409.077972 693.518188,410.533386 692.414062,411.178131 
	C670.970093,423.700867 649.472595,436.132050 627.981323,448.573761 
	C624.261047,450.727539 620.519165,452.844147 616.092224,454.892944 
	C594.575012,442.738434 573.752869,430.668884 552.930725,418.599335 
	C552.949463,396.996521 552.862732,375.392853 553.038269,353.791321 
	C553.109619,345.016510 553.751648,336.246368 554.258850,327.010376 
z"/>
<path fill="#FCFDFF" opacity="1.000000" stroke="none" 
	d="
M552.599365,418.750732 
	C573.752869,430.668884 594.575012,442.738434 615.736572,454.902100 
	C615.082825,455.848663 614.193787,456.880188 613.081116,457.526855 
	C594.305908,468.438141 575.502930,479.301544 556.378418,490.348694 
	C547.611633,485.894043 539.114929,481.367584 530.747437,476.613800 
	C519.322388,470.123047 507.981354,463.483826 496.646210,456.836823 
	C495.301697,456.048370 494.220276,454.811310 493.066925,453.430908 
	C512.833984,441.687134 532.551025,430.294647 552.599365,418.750732 
z"/>
<path fill="#FBFCFF" opacity="1.000000" stroke="none" 
	d="
M625.559082,913.903076 
	C619.125793,924.796387 608.942200,929.049255 598.388916,925.537598 
	C588.418457,922.219910 581.472900,910.955261 582.633972,899.868164 
	C583.728577,889.415710 587.888123,880.866943 598.409607,877.125061 
	C611.138428,872.598206 626.475220,883.702148 626.393799,897.190979 
	C626.360901,902.639954 625.976929,908.086731 625.559082,913.903076 
z"/>
<path fill="#FBFCFF" opacity="1.000000" stroke="none" 
	d="
M96.051727,901.950073 
	C97.128502,888.037537 103.077759,879.401489 113.146027,876.692871 
	C125.428848,873.388550 139.892776,884.399536 139.905136,897.064880 
	C139.907730,899.723633 139.905151,902.382446 139.905273,905.041199 
	C139.905777,916.467834 134.717422,923.240295 123.718483,926.169861 
	C114.746231,928.559631 103.909523,923.767212 99.454414,914.744568 
	C97.597137,910.983154 97.145737,906.527649 96.051727,901.950073 
z"/>
<path fill="#F8FBFE" opacity="1.000000" stroke="none" 
	d="
M910.976929,888.020264 
	C912.190308,891.683228 913.276733,894.968933 914.552063,898.825989 
	C903.894348,898.825989 893.725586,898.825989 882.764404,898.825989 
	C887.990723,883.802368 893.168640,868.917725 898.346619,854.033142 
	C898.718201,853.986328 899.089844,853.939514 899.461426,853.892761 
	C903.257568,865.142822 907.053711,876.392883 910.976929,888.020264 
z"/>
<path fill="#FBFCFF" opacity="1.000000" stroke="none" 
	d="
M498.844360,880.006348 
	C509.768616,889.755554 511.996094,905.228149 504.407043,916.760254 
	C499.926422,923.568970 493.584351,927.169495 485.488007,926.579224 
	C476.563477,925.928589 470.452881,920.933533 467.079926,912.662231 
	C463.680481,904.326111 463.955505,895.975891 468.052917,888.060669 
	C474.218719,876.149719 486.268311,873.033813 498.844360,880.006348 
z"/>
<path fill="#F8FBFE" opacity="1.000000" stroke="none" 
	d="
M308.647125,905.196289 
	C314.733704,907.061646 316.652527,912.954468 313.469360,918.817932 
	C308.827026,927.369263 294.623505,932.043579 285.917419,927.748413 
	C281.434052,925.536621 278.702271,921.978516 278.672760,916.737244 
	C278.643860,911.606140 281.421875,908.508179 285.840027,906.370178 
	C293.165466,902.825439 300.660858,903.544678 308.647125,905.196289 
z"/>
</svg>